Geologisk-Light.ufo
<glyph name="parenleft" format="2">
  <advance width="666"/>
  <unicode hex="0028"/>
  <outline>
    <contour>
      <point x="442" y="-230" type="curve"/>
      <point x="522" y="-188" type="line"/>
      <point x="372" y="56"/>
      <point x="296" y="378"/>
      <point x="296" y="696" type="curve" smooth="yes"/>
      <point x="296" y="1014"/>
      <point x="372" y="1332"/>
      <point x="522" y="1568" type="curve"/>
      <point x="442" y="1610" type="line"/>
      <point x="276" y="1344"/>
      <point x="194" y="1018"/>
      <point x="194" y="692" type="curve" smooth="yes"/>
      <point x="194" y="366"/>
      <point x="276" y="38"/>
    </contour>
  </outline>
</glyph>
<glyph name="one" format="2">
  <advance width="814"/>
  <unicode hex="0031"/>
  <outline>
    <contour>
      <point x="462" y="0" type="line"/>
      <point x="574" y="0" type="line"/>
      <point x="574" y="1430" type="line"/>
      <point x="564" y="1430" type="line"/>
      <point x="24" y="1222" type="line"/>
      <point x="54" y="1134" type="line"/>
      <point x="462" y="1288" type="line"/>
    </contour>
  </outline>
</glyph>
<glyph name="six" format="2">
  <advance width="1268"/>
  <unicode hex="0036"/>
  <guideline x="154" y="409" angle="0"/>
  <outline>
    <contour>
      <point x="664" y="-30" type="curve" smooth="yes"/>
      <point x="956" y="-30"/>
      <point x="1168" y="178"/>
      <point x="1168" y="446" type="curve" smooth="yes"/>
      <point x="1168" y="709"/>
      <point x="956" y="892"/>
      <point x="688" y="892" type="curve" smooth="yes"/>
      <point x="510" y="892"/>
      <point x="356" y="801"/>
      <point x="272" y="660" type="curve"/>
      <point x="316" y="978"/>
      <point x="554" y="1284"/>
      <point x="1038" y="1330" type="curve"/>
      <point x="994" y="1430" type="line"/>
      <point x="500" y="1359"/>
      <point x="140" y="1017"/>
      <point x="140" y="546" type="curve" smooth="yes"/>
      <point x="140" y="174"/>
      <point x="360" y="-30"/>
    </contour>
    <contour>
      <point x="664" y="84" type="curve" smooth="yes"/>
      <point x="442" y="84"/>
      <point x="284" y="228"/>
      <point x="284" y="430" type="curve" smooth="yes"/>
      <point x="284" y="628"/>
      <point x="450" y="778"/>
      <point x="664" y="778" type="curve" smooth="yes"/>
      <point x="878" y="778"/>
      <point x="1044" y="628"/>
      <point x="1044" y="430" type="curve" smooth="yes"/>
      <point x="1044" y="228"/>
      <point x="886" y="84"/>
    </contour>
  </outline>
</glyph>
<glyph name="nine" format="2">
  <advance width="1244"/>
  <unicode hex="0039"/>
  <outline>
    <contour>
      <point x="250" y="-30" type="line"/>
      <point x="744" y="42"/>
      <point x="1104" y="389"/>
      <point x="1104" y="866" type="curve" smooth="yes"/>
      <point x="1104" y="1231"/>
      <point x="889" y="1430"/>
      <point x="592" y="1430" type="curve" smooth="yes"/>
      <point x="307" y="1430"/>
      <point x="100" y="1233"/>
      <point x="100" y="978" type="curve" smooth="yes"/>
      <point x="100" y="715"/>
      <point x="307" y="532"/>
      <point x="568" y="532" type="curve" smooth="yes"/>
      <point x="741" y="532"/>
      <point x="890" y="623"/>
      <point x="972" y="764" type="curve"/>
      <point x="928" y="435"/>
      <point x="690" y="117"/>
      <point x="206" y="70" type="curve"/>
    </contour>
    <contour>
      <point x="592" y="646" type="curve" smooth="yes"/>
      <point x="385" y="646"/>
      <point x="224" y="791"/>
      <point x="224" y="982" type="curve" smooth="yes"/>
      <point x="224" y="1177"/>
      <point x="377" y="1316"/>
      <point x="592" y="1316" type="curve" smooth="yes"/>
      <point x="807" y="1316"/>
      <point x="960" y="1177"/>
      <point x="960" y="982" type="curve" smooth="yes"/>
      <point x="960" y="791"/>
      <point x="799" y="646"/>
    </contour>
  </outline>
</glyph>
<glyph name="semicolon" format="2">
  <advance width="560"/>
  <unicode hex="003B"/>
  <outline>
    <contour>
      <point x="280" y="792" type="curve" smooth="yes"/>
      <point x="342" y="792"/>
      <point x="390" y="836"/>
      <point x="390" y="896" type="curve" smooth="yes"/>
      <point x="390" y="956"/>
      <point x="342" y="1000"/>
      <point x="280" y="1000" type="curve" smooth="yes"/>
      <point x="218" y="1000"/>
      <point x="170" y="956"/>
      <point x="170" y="896" type="curve" smooth="yes"/>
      <point x="170" y="836"/>
      <point x="218" y="792"/>
    </contour>
    <contour>
      <point x="174" y="-246" type="line"/>
      <point x="312" y="-162"/>
      <point x="388" y="-48"/>
      <point x="388" y="47" type="curve" smooth="yes"/>
      <point x="388" y="131"/>
      <point x="344" y="178"/>
      <point x="276" y="178" type="curve" smooth="yes"/>
      <point x="216" y="178"/>
      <point x="172" y="136"/>
      <point x="172" y="80" type="curve" smooth="yes"/>
      <point x="172" y="22"/>
      <point x="220" y="-18"/>
      <point x="282" y="-14" type="curve"/>
      <point x="269" y="-67"/>
      <point x="199" y="-131"/>
      <point x="116" y="-177" type="curve"/>
    </contour>
  </outline>
</glyph>
<glyph name="less" format="2">
  <advance width="1296"/>
  <unicode hex="003C"/>
  <outline>
    <contour>
      <point x="1086" y="246" type="line"/>
      <point x="1128" y="348" type="line"/>
      <point x="332" y="664" type="line"/>
      <point x="1128" y="984" type="line"/>
      <point x="1086" y="1084" type="line"/>
      <point x="180" y="712" type="line"/>
      <point x="180" y="618" type="line"/>
    </contour>
  </outline>
</glyph>
<glyph name="greater" format="2">
  <advance width="1296"/>
  <unicode hex="003E"/>
  <guideline x="80" y="489" angle="67.7944"/>
  <outline>
    <contour>
      <point x="210" y="248" type="line"/>
      <point x="1116" y="618" type="line"/>
      <point x="1116" y="710" type="line"/>
      <point x="210" y="1084" type="line"/>
      <point x="168" y="982" type="line"/>
      <point x="962" y="664" type="line"/>
      <point x="168" y="350" type="line"/>
    </contour>
  </outline>
</glyph>
<glyph name="at" format="2">
  <advance width="1726"/>
  <unicode hex="0040"/>
  <guideline x="539" y="429" angle="87.0391"/>
  <outline>
    <contour>
      <point x="862" y="-234" type="curve" smooth="yes"/>
      <point x="1072" y="-234"/>
      <point x="1292" y="-172"/>
      <point x="1412" y="-78" type="curve"/>
      <point x="1372" y="2" type="line"/>
      <point x="1270" y="-86"/>
      <point x="1066" y="-148"/>
      <point x="878" y="-148" type="curve" smooth="yes"/>
      <point x="476" y="-148"/>
      <point x="206" y="110"/>
      <point x="206" y="490" type="curve" smooth="yes"/>
      <point x="206" y="868"/>
      <point x="500" y="1156"/>
      <point x="886" y="1156" type="curve" smooth="yes"/>
      <point x="1260" y="1156"/>
      <point x="1520" y="916"/>
      <point x="1520" y="572" type="curve" smooth="yes"/>
      <point x="1520" y="360"/>
      <point x="1414" y="214"/>
      <point x="1286" y="214" type="curve" smooth="yes"/>
      <point x="1176" y="214"/>
      <point x="1148" y="266"/>
      <point x="1154" y="394" type="curve" smooth="yes"/>
      <point x="1178" y="864" type="line"/>
      <point x="1078" y="864" type="line"/>
      <point x="1074" y="772" type="line"/>
      <point x="1012" y="850"/>
      <point x="930" y="890"/>
      <point x="832" y="890" type="curve" smooth="yes"/>
      <point x="638" y="890"/>
      <point x="480" y="710"/>
      <point x="480" y="488" type="curve" smooth="yes"/>
      <point x="480" y="286"/>
      <point x="612" y="132"/>
      <point x="786" y="132" type="curve" smooth="yes"/>
      <point x="910" y="132"/>
      <point x="1016" y="188"/>
      <point x="1070" y="284" type="curve"/>
      <point x="1084" y="190"/>
      <point x="1152" y="132"/>
      <point x="1272" y="132" type="curve" smooth="yes"/>
      <point x="1460" y="132"/>
      <point x="1614" y="318"/>
      <point x="1614" y="574" type="curve" smooth="yes"/>
      <point x="1614" y="968"/>
      <point x="1314" y="1242"/>
      <point x="886" y="1242" type="curve" smooth="yes"/>
      <point x="442" y="1242"/>
      <point x="112" y="918"/>
      <point x="112" y="484" type="curve" smooth="yes"/>
      <point x="112" y="54"/>
      <point x="414" y="-234"/>
    </contour>
    <contour>
      <point x="806" y="228" type="curve" smooth="yes"/>
      <point x="662" y="228"/>
      <point x="584" y="318"/>
      <point x="584" y="484" type="curve" smooth="yes"/>
      <point x="584" y="678"/>
      <point x="680" y="794"/>
      <point x="840" y="794" type="curve" smooth="yes"/>
      <point x="982" y="794"/>
      <point x="1060" y="704"/>
      <point x="1060" y="542" type="curve" smooth="yes"/>
      <point x="1060" y="344"/>
      <point x="966" y="228"/>
    </contour>
  </outline>
</glyph>
<glyph name="G" format="2">
  <advance width="1500"/>
  <unicode hex="0047"/>
  <anchor x="860" y="0" name="bottom"/>
  <anchor x="800" y="1400" name="top"/>
  <outline>
    <contour>
      <point x="886" y="-30" type="curve" smooth="yes"/>
      <point x="1010" y="-30"/>
      <point x="1226" y="16"/>
      <point x="1320" y="92" type="curve"/>
      <point x="1320" y="686" type="line"/>
      <point x="860" y="686" type="line"/>
      <point x="860" y="578" type="line"/>
      <point x="1208" y="578" type="line"/>
      <point x="1208" y="150" type="line"/>
      <point x="1150" y="112"/>
      <point x="1036" y="78"/>
      <point x="888" y="78" type="curve" smooth="yes"/>
      <point x="492" y="78"/>
      <point x="232" y="310"/>
      <point x="232" y="700" type="curve" smooth="yes"/>
      <point x="232" y="1078"/>
      <point x="478" y="1318"/>
      <point x="850" y="1318" type="curve" smooth="yes"/>
      <point x="978" y="1318"/>
      <point x="1112" y="1284"/>
      <point x="1220" y="1216" type="curve"/>
      <point x="1276" y="1311" type="line"/>
      <point x="1167" y="1392"/>
      <point x="1014" y="1430"/>
      <point x="860" y="1430" type="curve" smooth="yes"/>
      <point x="418" y="1430"/>
      <point x="112" y="1132"/>
      <point x="112" y="696" type="curve" smooth="yes"/>
      <point x="112" y="262"/>
      <point x="432" y="-30"/>
    </contour>
  </outline>
</glyph>
<glyph name="I" format="2">
  <advance width="516"/>
  <unicode hex="0049"/>
  <anchor x="258" y="0" name="bottom"/>
  <anchor x="316" y="0" name="ogonek"/>
  <anchor x="258" y="1400" name="top"/>
  <anchor x="120" y="1400" name="topleft"/>
  <outline>
    <contour>
      <point x="200" y="0" type="line"/>
      <point x="316" y="0" type="line"/>
      <point x="316" y="1400" type="line"/>
      <point x="200" y="1400" type="line"/>
    </contour>
  </outline>
</glyph>
<glyph name="K" format="2">
  <advance width="1314"/>
  <unicode hex="004B"/>
  <anchor x="692" y="0" name="bottom"/>
  <outline>
    <contour>
      <point x="200" y="0" type="line"/>
      <point x="316" y="0" type="line"/>
      <point x="316" y="394" type="line"/>
      <point x="554" y="684" type="line"/>
      <point x="1072" y="0" type="line"/>
      <point x="1224" y="0" type="line"/>
      <point x="630" y="776" type="line"/>
      <point x="1136" y="1400" type="line"/>
      <point x="998" y="1400" type="line"/>
      <point x="316" y="564" type="line"/>
      <point x="316" y="1400" type="line"/>
      <point x="200" y="1400" type="line"/>
    </contour>
  </outline>
</glyph>
<glyph name="Y" format="2">
  <advance width="1180"/>
  <unicode hex="0059"/>
  <anchor x="590" y="0" name="bottom"/>
  <anchor x="590" y="1400" name="top"/>
  <anchor x="-20" y="1400" name="topleft"/>
  <outline>
    <contour>
      <point x="532" y="0" type="line"/>
      <point x="648" y="0" type="line"/>
      <point x="648" y="624" type="line"/>
      <point x="1146" y="1400" type="line"/>
      <point x="1010" y="1400" type="line"/>
      <point x="594" y="738" type="line"/>
      <point x="174" y="1400" type="line"/>
      <point x="34" y="1400" type="line"/>
      <point x="532" y="624" type="line"/>
    </contour>
  </outline>
</glyph>
<glyph name="backslash" format="2">
  <advance width="892"/>
  <unicode hex="005C"/>
  <outline>
    <contour>
      <point x="772" y="-230" type="line"/>
      <point x="872" y="-190" type="line"/>
      <point x="120" y="1610" type="line"/>
      <point x="20" y="1570" type="line"/>
    </contour>
  </outline>
</glyph>
<glyph name="bracketright" format="2">
  <advance width="666"/>
  <unicode hex="005D"/>
  <outline>
    <contour>
      <point x="442" y="-420" type="line"/>
      <point x="442" y="1400" type="line"/>
      <point x="134" y="1400" type="line"/>
      <point x="134" y="1304" type="line"/>
      <point x="342" y="1304" type="line"/>
      <point x="342" y="-324" type="line"/>
      <point x="134" y="-324" type="line"/>
      <point x="134" y="-420" type="line"/>
    </contour>
  </outline>
</glyph>
<glyph name="d" format="2">
  <advance width="1254"/>
  <unicode hex="0064"/>
  <anchor x="972" y="1204" name="bar"/>
  <anchor x="1084" y="1440" name="caron"/>
  <outline>
    <contour>
      <point x="566" y="-30" type="curve" smooth="yes"/>
      <point x="784" y="-30"/>
      <point x="904" y="64"/>
      <point x="990" y="186" type="curve"/>
      <point x="972" y="212" type="line"/>
      <point x="972" y="0" type="line"/>
      <point x="1084" y="0" type="line"/>
      <point x="1084" y="1440" type="line"/>
      <point x="972" y="1440" type="line"/>
      <point x="972" y="742" type="line"/>
      <point x="990" y="766" type="line"/>
      <point x="906" y="898"/>
      <point x="770" y="990"/>
      <point x="566" y="990" type="curve" smooth="yes"/>
      <point x="276" y="990"/>
      <point x="80" y="758"/>
      <point x="80" y="480" type="curve" smooth="yes"/>
      <point x="80" y="202"/>
      <point x="276" y="-30"/>
    </contour>
    <contour>
      <point x="586" y="78" type="curve" smooth="yes"/>
      <point x="360" y="78"/>
      <point x="200" y="234"/>
      <point x="200" y="480" type="curve" smooth="yes"/>
      <point x="200" y="726"/>
      <point x="360" y="882"/>
      <point x="586" y="882" type="curve" smooth="yes"/>
      <point x="812" y="882"/>
      <point x="972" y="726"/>
      <point x="972" y="480" type="curve" smooth="yes"/>
      <point x="972" y="234"/>
      <point x="812" y="78"/>
    </contour>
  </outline>
</glyph>
<glyph name="o" format="2">
  <advance width="1172"/>
  <unicode hex="006F"/>
  <anchor x="586" y="0" name="bottom"/>
  <anchor x="974" y="960" name="horn"/>
  <anchor x="802" y="0" name="ogonek"/>
  <anchor x="586" y="960" name="top"/>
  <outline>
    <contour>
      <point x="586" y="-30" type="curve" smooth="yes"/>
      <point x="877" y="-30"/>
      <point x="1092" y="202"/>
      <point x="1092" y="480" type="curve" smooth="yes"/>
      <point x="1092" y="758"/>
      <point x="876" y="990"/>
      <point x="586" y="990" type="curve" smooth="yes"/>
      <point x="296" y="990"/>
      <point x="80" y="758"/>
      <point x="80" y="480" type="curve" smooth="yes"/>
      <point x="80" y="202"/>
      <point x="296" y="-30"/>
    </contour>
    <contour>
      <point x="586" y="78" type="curve" smooth="yes"/>
      <point x="360" y="78"/>
      <point x="200" y="234"/>
      <point x="200" y="480" type="curve" smooth="yes"/>
      <point x="200" y="726"/>
      <point x="360" y="882"/>
      <point x="586" y="882" type="curve" smooth="yes"/>
      <point x="812" y="882"/>
      <point x="972" y="726"/>
      <point x="972" y="480" type="curve" smooth="yes"/>
      <point x="972" y="234"/>
      <point x="812" y="78"/>
    </contour>
  </outline>
</glyph>
<glyph name="r" format="2">
  <advance width="756"/>
  <unicode hex="0072"/>
  <anchor x="282" y="0" name="bottom"/>
  <anchor x="442" y="960" name="top"/>
  <outline>
    <contour>
      <point x="170" y="0" type="line"/>
      <point x="282" y="0" type="line"/>
      <point x="282" y="558" type="line" smooth="yes"/>
      <point x="282" y="746"/>
      <point x="414" y="874"/>
      <point x="598" y="874" type="curve" smooth="yes"/>
      <point x="630" y="874"/>
      <point x="662" y="870"/>
      <point x="696" y="862" type="curve"/>
      <point x="716" y="980" type="line"/>
      <point x="682" y="988"/>
      <point x="644" y="990"/>
      <point x="610" y="990" type="curve" smooth="yes"/>
      <point x="484" y="990"/>
      <point x="370" y="946"/>
      <point x="282" y="806" type="curve"/>
      <point x="282" y="960" type="line"/>
      <point x="170" y="960" type="line"/>
    </contour>
  </outline>
</glyph>
<glyph name="s" format="2">
  <advance width="932"/>
  <unicode hex="0073"/>
  <anchor x="454" y="0" name="bottom"/>
  <anchor x="470" y="960" name="top"/>
  <outline>
    <contour>
      <point x="454" y="-30" type="curve" smooth="yes"/>
      <point x="674" y="-30"/>
      <point x="818" y="82"/>
      <point x="818" y="256" type="curve" smooth="yes"/>
      <point x="818" y="408"/>
      <point x="724" y="486"/>
      <point x="502" y="540" type="curve" smooth="yes"/>
      <point x="320" y="584"/>
      <point x="238" y="622"/>
      <point x="238" y="730" type="curve" smooth="yes"/>
      <point x="238" y="834"/>
      <point x="332" y="896"/>
      <point x="466" y="896" type="curve" smooth="yes"/>
      <point x="576" y="896"/>
      <point x="682" y="854"/>
      <point x="746" y="786" type="curve"/>
      <point x="804" y="884" type="line"/>
      <point x="718" y="960"/>
      <point x="602" y="1000"/>
      <point x="470" y="1000" type="curve" smooth="yes"/>
      <point x="270" y="1000"/>
      <point x="128" y="882"/>
      <point x="128" y="724" type="curve" smooth="yes"/>
      <point x="128" y="574"/>
      <point x="220" y="500"/>
      <point x="444" y="442" type="curve" smooth="yes"/>
      <point x="642" y="390"/>
      <point x="706" y="352"/>
      <point x="706" y="248" type="curve" smooth="yes"/>
      <point x="706" y="138"/>
      <point x="610" y="74"/>
      <point x="456" y="74" type="curve" smooth="yes"/>
      <point x="344" y="74"/>
      <point x="234" y="116"/>
      <point x="160" y="190" type="curve"/>
      <point x="98" y="94" type="line"/>
      <point x="178" y="21"/>
      <point x="316" y="-30"/>
    </contour>
  </outline>
</glyph>
<glyph name="u" format="2">
  <advance width="1144"/>
  <unicode hex="0075"/>
  <anchor x="556" y="0" name="bottom"/>
  <anchor x="974" y="0" name="descender"/>
  <anchor x="974" y="960" name="horn"/>
  <anchor x="974" y="0" name="ogonek"/>
  <anchor x="564" y="960" name="top"/>
  <outline>
    <contour>
      <point x="536" y="-30" type="curve" smooth="yes"/>
      <point x="656" y="-30"/>
      <point x="772" y="14"/>
      <point x="862" y="126" type="curve"/>
      <point x="862" y="0" type="line"/>
      <point x="974" y="0" type="line"/>
      <point x="974" y="960" type="line"/>
      <point x="862" y="960" type="line"/>
      <point x="862" y="390" type="line" smooth="yes"/>
      <point x="862" y="204"/>
      <point x="724" y="78"/>
      <point x="556" y="78" type="curve" smooth="yes"/>
      <point x="382" y="78"/>
      <point x="274" y="188"/>
      <point x="274" y="348" type="curve" smooth="yes"/>
      <point x="274" y="960" type="line"/>
      <point x="162" y="960" type="line"/>
      <point x="162" y="314" type="line" smooth="yes"/>
      <point x="162" y="152"/>
      <point x="284" y="-30"/>
    </contour>
  </outline>
</glyph>
<glyph name="y" format="2">
  <advance width="954"/>
  <unicode hex="0079"/>
  <anchor x="722" y="0" name="bottom"/>
  <anchor x="472" y="960" name="top"/>
  <outline>
    <contour>
      <point x="178" y="-450" type="curve" smooth="yes"/>
      <point x="318" y="-450"/>
      <point x="408" y="-400"/>
      <point x="490" y="-184" type="curve" smooth="yes"/>
      <point x="922" y="960" type="line"/>
      <point x="802" y="960" type="line"/>
      <point x="488" y="124" type="line"/>
      <point x="166" y="960" type="line"/>
      <point x="40" y="960" type="line"/>
      <point x="424" y="-28" type="line"/>
      <point x="374" y="-172" type="line" smooth="yes"/>
      <point x="334" y="-286"/>
      <point x="288" y="-342"/>
      <point x="176" y="-342" type="curve" smooth="yes"/>
      <point x="142" y="-342"/>
      <point x="92" y="-330"/>
      <point x="52" y="-300" type="curve"/>
      <point x="22" y="-402" type="line"/>
      <point x="80" y="-440"/>
      <point x="128" y="-450"/>
    </contour>
  </outline>
</glyph>
<glyph name="z" format="2">
  <advance width="922"/>
  <unicode hex="007A"/>
  <anchor x="460" y="960" name="top"/>
  <outline>
    <contour>
      <point x="100" y="0" type="line"/>
      <point x="822" y="0" type="line"/>
      <point x="822" y="104" type="line"/>
      <point x="236" y="104" type="line"/>
      <point x="814" y="864" type="line"/>
      <point x="814" y="960" type="line"/>
      <point x="106" y="960" type="line"/>
      <point x="106" y="856" type="line"/>
      <point x="678" y="856" type="line"/>
      <point x="100" y="96" type="line"/>
    </contour>
  </outline>
</glyph>
<glyph name="braceleft" format="2">
  <advance width="666"/>
  <unicode hex="007B"/>
  <outline>
    <contour>
      <point x="532" y="-424" type="curve"/>
      <point x="532" y="-328" type="line"/>
      <point x="386" y="-342"/>
      <point x="344" y="-302"/>
      <point x="356" y="-194" type="curve" smooth="yes"/>
      <point x="410" y="262" type="line" smooth="yes"/>
      <point x="428" y="406"/>
      <point x="396" y="468"/>
      <point x="286" y="490" type="curve"/>
      <point x="286" y="492" type="line"/>
      <point x="394" y="512"/>
      <point x="428" y="576"/>
      <point x="410" y="720" type="curve" smooth="yes"/>
      <point x="356" y="1174" type="line" smooth="yes"/>
      <point x="344" y="1280"/>
      <point x="388" y="1322"/>
      <point x="532" y="1308" type="curve"/>
      <point x="532" y="1404" type="line"/>
      <point x="330" y="1436"/>
      <point x="224" y="1344"/>
      <point x="244" y="1180" type="curve" smooth="yes"/>
      <point x="304" y="704" type="line" smooth="yes"/>
      <point x="322" y="568"/>
      <point x="298" y="540"/>
      <point x="134" y="540" type="curve"/>
      <point x="134" y="444" type="line"/>
      <point x="298" y="444"/>
      <point x="322" y="416"/>
      <point x="304" y="278" type="curve" smooth="yes"/>
      <point x="242" y="-204" type="line" smooth="yes"/>
      <point x="222" y="-366"/>
      <point x="326" y="-456"/>
    </contour>
  </outline>
</glyph>
<glyph name="bar" format="2">
  <advance width="500"/>
  <unicode hex="007C"/>
  <outline>
    <contour>
      <point x="200" y="-220" type="line"/>
      <point x="300" y="-220" type="line"/>
      <point x="300" y="1600" type="line"/>
      <point x="200" y="1600" type="line"/>
    </contour>
  </outline>
</glyph>
<glyph name="cent" format="2">
  <advance width="1296"/>
  <unicode hex="00A2"/>
  <outline>
    <contour>
      <point x="648" y="-160" type="line"/>
      <point x="748" y="-160" type="line"/>
      <point x="748" y="2" type="line"/>
      <point x="860" y="10"/>
      <point x="954" y="52"/>
      <point x="1042" y="124" type="curve"/>
      <point x="964" y="192" type="line"/>
      <point x="920" y="146"/>
      <point x="838" y="108"/>
      <point x="748" y="100" type="curve"/>
      <point x="748" y="862" type="line"/>
      <point x="828" y="858"/>
      <point x="896" y="832"/>
      <point x="950" y="792" type="curve"/>
      <point x="1022" y="864" type="line"/>
      <point x="936" y="928"/>
      <point x="852" y="956"/>
      <point x="748" y="960" type="curve"/>
      <point x="748" y="1120" type="line"/>
      <point x="648" y="1120" type="line"/>
      <point x="648" y="954" type="line"/>
      <point x="406" y="920"/>
      <point x="224" y="742"/>
      <point x="224" y="480" type="curve" smooth="yes"/>
      <point x="224" y="216"/>
      <point x="404" y="32"/>
      <point x="648" y="4" type="curve"/>
    </contour>
    <contour>
      <point x="648" y="102" type="line"/>
      <point x="448" y="128"/>
      <point x="328" y="260"/>
      <point x="328" y="482" type="curve" smooth="yes"/>
      <point x="328" y="702"/>
      <point x="448" y="834"/>
      <point x="648" y="860" type="curve"/>
    </contour>
  </outline>
</glyph>
<glyph name="currency" format="2">
  <advance width="1296"/>
  <unicode hex="00A4"/>
  <outline>
    <contour>
      <point x="258" y="156" type="line"/>
      <point x="410" y="308" type="line"/>
      <point x="480" y="252"/>
      <point x="560" y="226"/>
      <point x="648" y="226" type="curve" smooth="yes"/>
      <point x="732" y="226"/>
      <point x="814" y="250"/>
      <point x="886" y="308" type="curve"/>
      <point x="1038" y="156" type="line"/>
      <point x="1114" y="230" type="line"/>
      <point x="962" y="384" type="line"/>
      <point x="1016" y="450"/>
      <point x="1044" y="534"/>
      <point x="1044" y="620" type="curve" smooth="yes"/>
      <point x="1044" y="708"/>
      <point x="1016" y="790"/>
      <point x="962" y="860" type="curve"/>
      <point x="1114" y="1010" type="line"/>
      <point x="1038" y="1086" type="line"/>
      <point x="886" y="934" type="line"/>
      <point x="818" y="990"/>
      <point x="734" y="1016"/>
      <point x="648" y="1016" type="curve" smooth="yes"/>
      <point x="564" y="1016"/>
      <point x="482" y="992"/>
      <point x="410" y="934" type="curve"/>
      <point x="258" y="1086" type="line"/>
      <point x="182" y="1010" type="line"/>
      <point x="334" y="860" type="line"/>
      <point x="280" y="790"/>
      <point x="254" y="706"/>
      <point x="254" y="620" type="curve" smooth="yes"/>
      <point x="254" y="536"/>
      <point x="278" y="454"/>
      <point x="334" y="384" type="curve"/>
      <point x="182" y="230" type="line"/>
    </contour>
    <contour>
      <point x="648" y="326" type="curve" smooth="yes"/>
      <point x="478" y="326"/>
      <point x="352" y="452"/>
      <point x="352" y="620" type="curve" smooth="yes"/>
      <point x="352" y="792"/>
      <point x="480" y="916"/>
      <point x="648" y="916" type="curve" smooth="yes"/>
      <point x="818" y="916"/>
      <point x="944" y="792"/>
      <point x="944" y="620" type="curve" smooth="yes"/>
      <point x="944" y="452"/>
      <point x="820" y="326"/>
    </contour>
  </outline>
</glyph>
<glyph name="brokenbar" format="2">
  <advance width="500"/>
  <unicode hex="00A6"/>
  <outline>
    <contour>
      <point x="200" y="610" type="line"/>
      <point x="300" y="610" type="line"/>
      <point x="300" y="1280" type="line"/>
      <point x="200" y="1280" type="line"/>
    </contour>
    <contour>
      <point x="200" y="-300" type="line"/>
      <point x="300" y="-300" type="line"/>
      <point x="300" y="370" type="line"/>
      <point x="200" y="370" type="line"/>
    </contour>
  </outline>
</glyph>
<glyph name="registered" format="2">
  <advance width="1228"/>
  <unicode hex="00AE"/>
  <anchor x="638" y="778" name="bottom"/>
  <anchor x="614" y="988" name="center"/>
  <anchor x="616" y="1198" name="top"/>
  <outline>
    <contour>
      <point x="614" y="478" type="curve" smooth="yes"/>
      <point x="912" y="478"/>
      <point x="1138" y="700"/>
      <point x="1138" y="988" type="curve" smooth="yes"/>
      <point x="1138" y="1274"/>
      <point x="910" y="1500"/>
      <point x="614" y="1500" type="curve" smooth="yes"/>
      <point x="316" y="1500"/>
      <point x="90" y="1280"/>
      <point x="90" y="988" type="curve" smooth="yes"/>
      <point x="90" y="700"/>
      <point x="314" y="478"/>
    </contour>
    <contour>
      <point x="614" y="544" type="curve" smooth="yes"/>
      <point x="376" y="544"/>
      <point x="164" y="722"/>
      <point x="164" y="988" type="curve" smooth="yes"/>
      <point x="164" y="1256"/>
      <point x="376" y="1434"/>
      <point x="614" y="1434" type="curve" smooth="yes"/>
      <point x="852" y="1434"/>
      <point x="1064" y="1256"/>
      <point x="1064" y="988" type="curve" smooth="yes"/>
      <point x="1064" y="722"/>
      <point x="852" y="544"/>
    </contour>
    <contour>
      <point x="432" y="714" type="line"/>
      <point x="512" y="714" type="line"/>
      <point x="512" y="938" type="line"/>
      <point x="598" y="938" type="line"/>
      <point x="766" y="714" type="line"/>
      <point x="864" y="714" type="line"/>
      <point x="686" y="950" type="line"/>
      <point x="776" y="964"/>
      <point x="838" y="1020"/>
      <point x="838" y="1100" type="curve" smooth="yes"/>
      <point x="838" y="1200"/>
      <point x="762" y="1262"/>
      <point x="646" y="1262" type="curve" smooth="yes"/>
      <point x="432" y="1262" type="line"/>
    </contour>
    <contour>
      <point x="512" y="1006" type="line"/>
      <point x="512" y="1194" type="line"/>
      <point x="638" y="1194" type="line" smooth="yes"/>
      <point x="716" y="1194"/>
      <point x="754" y="1156"/>
      <point x="754" y="1098" type="curve" smooth="yes"/>
      <point x="754" y="1040"/>
      <point x="708" y="1006"/>
      <point x="630" y="1006" type="curve" smooth="yes"/>
    </contour>
  </outline>
</glyph>
<glyph name="twosuperior" format="2">
  <advance width="824"/>
  <unicode hex="00B2"/>
  <guideline x="211" y="450" angle="0"/>
  <outline>
    <contour>
      <point x="108" y="722" type="line"/>
      <point x="722" y="722" type="line"/>
      <point x="722" y="814" type="line"/>
      <point x="244" y="814" type="line"/>
      <point x="420" y="970" type="line" smooth="yes"/>
      <point x="618" y="1146"/>
      <point x="700" y="1256"/>
      <point x="700" y="1386" type="curve" smooth="yes"/>
      <point x="700" y="1548"/>
      <point x="572" y="1652"/>
      <point x="388" y="1652" type="curve" smooth="yes"/>
      <point x="282" y="1652"/>
      <point x="188" y="1620"/>
      <point x="118" y="1559" type="curve"/>
      <point x="160" y="1482" type="line"/>
      <point x="210" y="1532"/>
      <point x="292" y="1558"/>
      <point x="374" y="1558" type="curve" smooth="yes"/>
      <point x="514" y="1558"/>
      <point x="600" y="1490"/>
      <point x="600" y="1380" type="curve" smooth="yes"/>
      <point x="600" y="1266"/>
      <point x="512" y="1166"/>
      <point x="314" y="988" type="curve" smooth="yes"/>
      <point x="108" y="804" type="line"/>
    </contour>
  </outline>
</glyph>
<glyph name="paragraph" format="2">
  <advance width="1196"/>
  <unicode hex="00B6"/>
  <outline>
    <contour>
      <point x="490" y="-420" type="line"/>
      <point x="594" y="-420" type="line"/>
      <point x="594" y="1300" type="line"/>
      <point x="800" y="1300" type="line"/>
      <point x="800" y="-420" type="line"/>
      <point x="904" y="-420" type="line"/>
      <point x="904" y="1300" type="line"/>
      <point x="1126" y="1300" type="line"/>
      <point x="1126" y="1400" type="line"/>
      <point x="512" y="1400" type="line" smooth="yes"/>
      <point x="248" y="1400"/>
      <point x="90" y="1250"/>
      <point x="90" y="1046" type="curve" smooth="yes"/>
      <point x="90" y="842"/>
      <point x="248" y="692"/>
      <point x="512" y="692" type="curve"/>
      <point x="490" y="730" type="line"/>
    </contour>
  </outline>
</glyph>
<glyph name="AE" format="2">
  <advance width="1742"/>
  <unicode hex="00C6"/>
  <anchor x="1128" y="1400" name="top"/>
  <outline>
    <contour>
      <point x="-10" y="0" type="line"/>
      <point x="116" y="0" type="line"/>
      <point x="302" y="380" type="line"/>
      <point x="772" y="380" type="line"/>
      <point x="772" y="0" type="line"/>
      <point x="1592" y="0" type="line"/>
      <point x="1592" y="108" type="line"/>
      <point x="888" y="108" type="line"/>
      <point x="888" y="688" type="line"/>
      <point x="1516" y="688" type="line"/>
      <point x="1516" y="796" type="line"/>
      <point x="888" y="796" type="line"/>
      <point x="888" y="1292" type="line"/>
      <point x="1584" y="1292" type="line"/>
      <point x="1584" y="1400" type="line"/>
      <point x="702" y="1400" type="line"/>
    </contour>
    <contour>
      <point x="348" y="484" type="line"/>
      <point x="772" y="1312" type="line"/>
      <point x="772" y="484" type="line"/>
    </contour>
  </outline>
</glyph>
<glyph name="multiply" format="2">
  <advance width="1296"/>
  <unicode hex="00D7"/>
  <outline>
    <contour>
      <point x="324" y="268" type="line"/>
      <point x="648" y="592" type="line"/>
      <point x="974" y="268" type="line"/>
      <point x="1042" y="336" type="line"/>
      <point x="718" y="662" type="line"/>
      <point x="1042" y="986" type="line"/>
      <point x="974" y="1058" type="line"/>
      <point x="648" y="732" type="line"/>
      <point x="324" y="1058" type="line"/>
      <point x="254" y="988" type="line"/>
      <point x="580" y="664" type="line"/>
      <point x="254" y="338" type="line"/>
    </contour>
  </outline>
</glyph>
<glyph name="Oslash" format="2">
  <advance width="1676"/>
  <unicode hex="00D8"/>
  <anchor x="838" y="1400" name="top"/>
  <outline>
    <contour>
      <point x="284" y="-50" type="line"/>
      <point x="412" y="102" type="line"/>
      <point x="530" y="18"/>
      <point x="676" y="-30"/>
      <point x="838" y="-30" type="curve" smooth="yes"/>
      <point x="1246" y="-30"/>
      <point x="1564" y="286"/>
      <point x="1564" y="700" type="curve" smooth="yes"/>
      <point x="1564" y="908"/>
      <point x="1482" y="1094"/>
      <point x="1346" y="1226" type="curve"/>
      <point x="1472" y="1378" type="line"/>
      <point x="1392" y="1450" type="line"/>
      <point x="1264" y="1296" type="line"/>
      <point x="1144" y="1380"/>
      <point x="998" y="1430"/>
      <point x="838" y="1430" type="curve" smooth="yes"/>
      <point x="426" y="1430"/>
      <point x="112" y="1116"/>
      <point x="112" y="700" type="curve" smooth="yes"/>
      <point x="112" y="488"/>
      <point x="194" y="304"/>
      <point x="328" y="172" type="curve"/>
      <point x="204" y="22" type="line"/>
    </contour>
    <contour>
      <point x="402" y="260" type="line"/>
      <point x="296" y="366"/>
      <point x="232" y="518"/>
      <point x="232" y="700" type="curve" smooth="yes"/>
      <point x="232" y="1072"/>
      <point x="502" y="1318"/>
      <point x="838" y="1318" type="curve" smooth="yes"/>
      <point x="970" y="1318"/>
      <point x="1094" y="1280"/>
      <point x="1192" y="1210" type="curve"/>
    </contour>
    <contour>
      <point x="838" y="82" type="curve" smooth="yes"/>
      <point x="706" y="82"/>
      <point x="582" y="120"/>
      <point x="484" y="190" type="curve"/>
      <point x="1274" y="1140" type="line"/>
      <point x="1380" y="1034"/>
      <point x="1444" y="882"/>
      <point x="1444" y="700" type="curve" smooth="yes"/>
      <point x="1444" y="328"/>
      <point x="1174" y="82"/>
    </contour>
  </outline>
</glyph>
<glyph name="Thorn" format="2">
  <advance width="1230"/>
  <unicode hex="00DE"/>
  <outline>
    <contour>
      <point x="200" y="0" type="line"/>
      <point x="316" y="0" type="line"/>
      <point x="316" y="322" type="line"/>
      <point x="670" y="322" type="line" smooth="yes"/>
      <point x="978" y="322"/>
      <point x="1150" y="460"/>
      <point x="1150" y="718" type="curve" smooth="yes"/>
      <point x="1150" y="968"/>
      <point x="956" y="1118"/>
      <point x="672" y="1118" type="curve" smooth="yes"/>
      <point x="316" y="1118" type="line"/>
      <point x="316" y="1400" type="line"/>
      <point x="200" y="1400" type="line"/>
    </contour>
    <contour>
      <point x="316" y="430" type="line"/>
      <point x="316" y="1010" type="line"/>
      <point x="686" y="1010" type="line" smooth="yes"/>
      <point x="902" y="1010"/>
      <point x="1034" y="894"/>
      <point x="1034" y="714" type="curve" smooth="yes"/>
      <point x="1034" y="528"/>
      <point x="906" y="430"/>
      <point x="684" y="430" type="curve" smooth="yes"/>
    </contour>
  </outline>
</glyph>
<glyph name="eth" format="2">
  <advance width="1147"/>
  <unicode hex="00F0"/>
  <outline>
    <contour>
      <point x="566" y="-30" type="curve" smooth="yes"/>
      <point x="850" y="-30"/>
      <point x="1062" y="198"/>
      <point x="1062" y="490" type="curve" smooth="yes"/>
      <point x="1062" y="846"/>
      <point x="860" y="1180"/>
      <point x="454" y="1470" type="curve"/>
      <point x="356" y="1402" type="line"/>
      <point x="610" y="1234"/>
      <point x="786" y="1034"/>
      <point x="884" y="816" type="curve"/>
      <point x="872" y="864" type="line"/>
      <point x="790" y="930"/>
      <point x="684" y="970"/>
      <point x="566" y="970" type="curve" smooth="yes"/>
      <point x="288" y="970"/>
      <point x="80" y="742"/>
      <point x="80" y="470" type="curve" smooth="yes"/>
      <point x="80" y="198"/>
      <point x="288" y="-30"/>
    </contour>
    <contour>
      <point x="566" y="78" type="curve" smooth="yes"/>
      <point x="352" y="78"/>
      <point x="200" y="230"/>
      <point x="200" y="470" type="curve" smooth="yes"/>
      <point x="200" y="710"/>
      <point x="352" y="862"/>
      <point x="566" y="862" type="curve" smooth="yes"/>
      <point x="786" y="862"/>
      <point x="942" y="710"/>
      <point x="942" y="470" type="curve" smooth="yes"/>
      <point x="942" y="230"/>
      <point x="786" y="78"/>
    </contour>
    <contour>
      <point x="334" y="1106" type="line"/>
      <point x="604" y="1232" type="line"/>
      <point x="604" y="1234" type="line"/>
      <point x="858" y="1356" type="line"/>
      <point x="858" y="1454" type="line"/>
      <point x="604" y="1332" type="line"/>
      <point x="604" y="1330" type="line"/>
      <point x="334" y="1204" type="line"/>
    </contour>
  </outline>
</glyph>
<glyph name="Lslash" format="2">
  <advance width="1094"/>
  <unicode hex="0141"/>
  <guideline x="64" y="556" angle="115.1292"/>
  <guideline x="34" y="556" angle="0"/>
  <guideline x="908" y="941" angle="115.1292"/>
  <anchor x="628" y="0" name="bottom"/>
  <anchor x="356" y="1440" name="caron"/>
  <anchor x="298" y="1400" name="top"/>
  <outline>
    <contour>
      <point x="82" y="516" type="line"/>
      <point x="294" y="614" type="line"/>
      <point x="294" y="604" type="line"/>
      <point x="927" y="900" type="line"/>
      <point x="890" y="980" type="line"/>
      <point x="294" y="702" type="line"/>
      <point x="294" y="712" type="line"/>
      <point x="45" y="596" type="line"/>
    </contour>
    <component base="L" xOffset="40"/>
  </outline>
</glyph>
<glyph name="lslash" format="2">
  <advance width="592"/>
  <unicode hex="0142"/>
  <guideline x="526" y="749" angle="270"/>
  <guideline x="526" y="749" angle="115.1531"/>
  <guideline x="66" y="543" angle="115.1531"/>
  <anchor x="296" y="0" name="bottom"/>
  <anchor x="352" y="1440" name="caron"/>
  <anchor x="296" y="1440" name="top"/>
  <outline>
    <contour>
      <point x="84" y="503" type="line"/>
      <point x="296" y="602" type="line"/>
      <point x="296" y="592" type="line"/>
      <point x="545" y="708" type="line"/>
      <point x="507" y="789" type="line"/>
      <point x="296" y="690" type="line"/>
      <point x="296" y="700" type="line"/>
      <point x="47" y="584" type="line"/>
    </contour>
    <component base="l" xOffset="70"/>
  </outline>
</glyph>
<glyph name="Schwa" format="2">
  <advance width="1599"/>
  <unicode hex="018F"/>
  <outline>
    <contour>
      <point x="777" y="-30" type="curve" smooth="yes"/>
      <point x="1195" y="-30"/>
      <point x="1487" y="288"/>
      <point x="1487" y="720" type="curve" smooth="yes"/>
      <point x="1487" y="1142"/>
      <point x="1199" y="1430"/>
      <point x="779" y="1430" type="curve" smooth="yes"/>
      <point x="557" y="1430"/>
      <point x="359" y="1353"/>
      <point x="222" y="1239" type="curve"/>
      <point x="289" y="1150" type="line"/>
      <point x="407" y="1258"/>
      <point x="583" y="1318"/>
      <point x="779" y="1318" type="curve" smooth="yes"/>
      <point x="1137" y="1318"/>
      <point x="1367" y="1084"/>
      <point x="1367" y="720" type="curve" smooth="yes"/>
      <point x="1367" y="340"/>
      <point x="1137" y="82"/>
      <point x="777" y="82" type="curve" smooth="yes"/>
      <point x="465" y="82"/>
      <point x="243" y="310"/>
      <point x="241" y="640" type="curve"/>
      <point x="193" y="602" type="line"/>
      <point x="1407" y="602" type="line"/>
      <point x="1407" y="710" type="line"/>
      <point x="113" y="710" type="line"/>
      <point x="93" y="284"/>
      <point x="373" y="-30"/>
    </contour>
  </outline>
</glyph>
<glyph name="oogonek" format="2">
  <advance width="1172"/>
  <unicode hex="01EB"/>
  <anchor x="586" y="960" name="top"/>
  <outline>
    <contour>
      <point x="642" y="-450" type="curve" smooth="yes"/>
      <point x="698" y="-450"/>
      <point x="755" y="-435"/>
      <point x="804" y="-409" type="curve"/>
      <point x="762" y="-313" type="line"/>
      <point x="733" y="-329"/>
      <point x="697" y="-340"/>
      <point x="658" y="-340" type="curve" smooth="yes"/>
      <point x="584" y="-340"/>
      <point x="560" y="-291"/>
      <point x="562" y="-229" type="curve" smooth="yes"/>
      <point x="566" y="-115"/>
      <point x="638" y="-45"/>
      <point x="750" y="-6" type="curve" smooth="yes"/>
      <point x="954" y="65"/>
      <point x="1092" y="258"/>
      <point x="1092" y="480" type="curve" smooth="yes"/>
      <point x="1092" y="758"/>
      <point x="876" y="990"/>
      <point x="586" y="990" type="curve" smooth="yes"/>
      <point x="296" y="990"/>
      <point x="80" y="758"/>
      <point x="80" y="480" type="curve" smooth="yes"/>
      <point x="80" y="210"/>
      <point x="283" y="-16"/>
      <point x="560" y="-29" type="curve"/>
      <point x="491" y="-86"/>
      <point x="444" y="-161"/>
      <point x="442" y="-255" type="curve" smooth="yes"/>
      <point x="440" y="-362"/>
      <point x="510" y="-450"/>
    </contour>
    <contour>
      <point x="586" y="78" type="curve" smooth="yes"/>
      <point x="360" y="78"/>
      <point x="200" y="234"/>
      <point x="200" y="480" type="curve" smooth="yes"/>
      <point x="200" y="726"/>
      <point x="360" y="882"/>
      <point x="586" y="882" type="curve" smooth="yes"/>
      <point x="812" y="882"/>
      <point x="972" y="726"/>
      <point x="972" y="480" type="curve" smooth="yes"/>
      <point x="972" y="234"/>
      <point x="812" y="78"/>
    </contour>
  </outline>
</glyph>
<glyph name="circumflexcomb" format="2">
  <unicode hex="0302"/>
  <anchor x="-586" y="960" name="_top"/>
  <anchor x="-586" y="1444" name="top"/>
  <anchor x="-278" y="1224" name="top_right"/>
  <outline>
    <contour>
      <point x="-900" y="1170" type="line"/>
      <point x="-778" y="1170" type="line"/>
      <point x="-580" y="1426" type="line"/>
      <point x="-392" y="1170" type="line"/>
      <point x="-272" y="1170" type="line"/>
      <point x="-516" y="1504" type="line"/>
      <point x="-640" y="1504" type="line"/>
    </contour>
  </outline>
</glyph>
<glyph name="tildecomb" format="2">
  <unicode hex="0303"/>
  <anchor x="-586" y="960" name="_top"/>
  <anchor x="-586" y="1344" name="top"/>
  <outline>
    <contour>
      <point x="-854" y="1216" type="line"/>
      <point x="-826" y="1296"/>
      <point x="-786" y="1340"/>
      <point x="-730" y="1340" type="curve" smooth="yes"/>
      <point x="-644" y="1340"/>
      <point x="-552" y="1236"/>
      <point x="-442" y="1236" type="curve" smooth="yes"/>
      <point x="-358" y="1236"/>
      <point x="-286" y="1302"/>
      <point x="-244" y="1414" type="curve"/>
      <point x="-318" y="1460" type="line"/>
      <point x="-344" y="1382"/>
      <point x="-386" y="1334"/>
      <point x="-442" y="1334" type="curve" smooth="yes"/>
      <point x="-528" y="1334"/>
      <point x="-620" y="1440"/>
      <point x="-730" y="1440" type="curve" smooth="yes"/>
      <point x="-820" y="1440"/>
      <point x="-888" y="1366"/>
      <point x="-928" y="1260" type="curve"/>
    </contour>
  </outline>
</glyph>
<glyph name="brevecomb" format="2">
  <unicode hex="0306"/>
  <anchor x="-586" y="960" name="_top"/>
  <anchor x="-586" y="1404" name="top"/>
  <outline>
    <contour>
      <point x="-586" y="1160" type="curve" smooth="yes"/>
      <point x="-396" y="1160"/>
      <point x="-256" y="1308"/>
      <point x="-262" y="1504" type="curve"/>
      <point x="-366" y="1504" type="line"/>
      <point x="-358" y="1356"/>
      <point x="-446" y="1256"/>
      <point x="-586" y="1256" type="curve" smooth="yes"/>
      <point x="-726" y="1256"/>
      <point x="-816" y="1356"/>
      <point x="-810" y="1504" type="curve"/>
      <point x="-912" y="1504" type="line"/>
      <point x="-920" y="1306"/>
      <point x="-782" y="1160"/>
    </contour>
  </outline>
</glyph>
<glyph name="dotaccentcomb" format="2">
  <unicode hex="0307"/>
  <anchor x="-586" y="960" name="_top"/>
  <anchor x="-586" y="1284" name="top"/>
  <outline>
    <contour>
      <point x="-586" y="1162" type="curve" smooth="yes"/>
      <point x="-534" y="1162"/>
      <point x="-492" y="1204"/>
      <point x="-492" y="1256" type="curve" smooth="yes"/>
      <point x="-492" y="1308"/>
      <point x="-534" y="1350"/>
      <point x="-586" y="1350" type="curve" smooth="yes"/>
      <point x="-638" y="1350"/>
      <point x="-680" y="1308"/>
      <point x="-680" y="1256" type="curve" smooth="yes"/>
      <point x="-680" y="1204"/>
      <point x="-638" y="1162"/>
    </contour>
  </outline>
</glyph>
<glyph name="dieresiscomb" format="2">
  <unicode hex="0308"/>
  <anchor x="-586" y="960" name="_top"/>
  <anchor x="-586" y="1284" name="top"/>
  <outline>
    <contour>
      <point x="-748" y="1162" type="curve" smooth="yes"/>
      <point x="-696" y="1162"/>
      <point x="-654" y="1204"/>
      <point x="-654" y="1256" type="curve" smooth="yes"/>
      <point x="-654" y="1308"/>
      <point x="-696" y="1350"/>
      <point x="-748" y="1350" type="curve" smooth="yes"/>
      <point x="-800" y="1350"/>
      <point x="-842" y="1308"/>
      <point x="-842" y="1256" type="curve" smooth="yes"/>
      <point x="-842" y="1204"/>
      <point x="-800" y="1162"/>
    </contour>
    <contour>
      <point x="-424" y="1162" type="curve" smooth="yes"/>
      <point x="-372" y="1162"/>
      <point x="-330" y="1204"/>
      <point x="-330" y="1256" type="curve" smooth="yes"/>
      <point x="-330" y="1308"/>
      <point x="-372" y="1350"/>
      <point x="-424" y="1350" type="curve" smooth="yes"/>
      <point x="-476" y="1350"/>
      <point x="-518" y="1308"/>
      <point x="-518" y="1256" type="curve" smooth="yes"/>
      <point x="-518" y="1204"/>
      <point x="-476" y="1162"/>
    </contour>
  </outline>
</glyph>
<glyph name="hookabovecomb" format="2">
  <unicode hex="0309"/>
  <guideline x="-272" y="817" angle="0"/>
  <anchor x="-586" y="960" name="_top"/>
  <outline>
    <contour>
      <point x="-646" y="1170" type="curve"/>
      <point x="-554" y="1170" type="line"/>
      <point x="-588" y="1248"/>
      <point x="-574" y="1274"/>
      <point x="-486" y="1314" type="curve" smooth="yes"/>
      <point x="-378" y="1362"/>
      <point x="-344" y="1396"/>
      <point x="-344" y="1474" type="curve" smooth="yes"/>
      <point x="-344" y="1566"/>
      <point x="-446" y="1634"/>
      <point x="-584" y="1634" type="curve" smooth="yes"/>
      <point x="-664" y="1634"/>
      <point x="-744" y="1618"/>
      <point x="-810" y="1586" type="curve"/>
      <point x="-776" y="1508" type="line"/>
      <point x="-726" y="1534"/>
      <point x="-654" y="1550"/>
      <point x="-590" y="1550" type="curve" smooth="yes"/>
      <point x="-504" y="1550"/>
      <point x="-440" y="1514"/>
      <point x="-440" y="1456" type="curve" smooth="yes"/>
      <point x="-440" y="1410"/>
      <point x="-462" y="1396"/>
      <point x="-556" y="1360" type="curve" smooth="yes"/>
      <point x="-664" y="1318"/>
      <point x="-690" y="1260"/>
    </contour>
  </outline>
</glyph>
<glyph name="caroncomb" format="2">
  <unicode hex="030C"/>
  <anchor x="-586" y="960" name="_top"/>
  <outline>
    <contour>
      <point x="-654" y="1170" type="line"/>
      <point x="-532" y="1170" type="line"/>
      <point x="-272" y="1504" type="line"/>
      <point x="-394" y="1504" type="line"/>
      <point x="-592" y="1248" type="line"/>
      <point x="-780" y="1504" type="line"/>
      <point x="-900" y="1504" type="line"/>
    </contour>
  </outline>
</glyph>
<glyph name="breveinvertedcomb" format="2">
  <unicode hex="0311"/>
  <anchor x="-586" y="960" name="_top"/>
  <outline>
    <contour>
      <point x="-912" y="1170" type="curve"/>
      <point x="-810" y="1170" type="line"/>
      <point x="-816" y="1318"/>
      <point x="-726" y="1418"/>
      <point x="-586" y="1418" type="curve" smooth="yes"/>
      <point x="-446" y="1418"/>
      <point x="-358" y="1318"/>
      <point x="-366" y="1170" type="curve"/>
      <point x="-262" y="1170" type="line"/>
      <point x="-256" y="1366"/>
      <point x="-396" y="1514"/>
      <point x="-586" y="1514" type="curve" smooth="yes"/>
      <point x="-782" y="1514"/>
      <point x="-920" y="1368"/>
    </contour>
  </outline>
</glyph>
<glyph name="horncomb" format="2">
  <unicode hex="031B"/>
  <anchor x="-218" y="960" name="_horn"/>
  <outline>
    <contour>
      <point x="-198" y="842" type="curve" smooth="yes"/>
      <point x="-70" y="842"/>
      <point x="-6" y="916"/>
      <point x="-6" y="1004" type="curve" smooth="yes"/>
      <point x="-6" y="1056"/>
      <point x="-30" y="1116"/>
      <point x="-82" y="1172" type="curve"/>
      <point x="-174" y="1130" type="line"/>
      <point x="-132" y="1082"/>
      <point x="-112" y="1036"/>
      <point x="-112" y="1002" type="curve" smooth="yes"/>
      <point x="-112" y="958"/>
      <point x="-142" y="926"/>
      <point x="-218" y="926" type="curve" smooth="yes"/>
      <point x="-288" y="926"/>
      <point x="-444" y="990"/>
      <point x="-604" y="990" type="curve"/>
      <point x="-604" y="922" type="line"/>
      <point x="-434" y="922"/>
      <point x="-292" y="842"/>
    </contour>
  </outline>
</glyph>
<glyph name="dotbelowcomb" format="2">
  <unicode hex="0323"/>
  <anchor x="-586" y="0" name="_bottom"/>
  <outline>
    <contour>
      <point x="-586" y="-472" type="curve" smooth="yes"/>
      <point x="-534" y="-472"/>
      <point x="-492" y="-430"/>
      <point x="-492" y="-378" type="curve" smooth="yes"/>
      <point x="-492" y="-326"/>
      <point x="-534" y="-284"/>
      <point x="-586" y="-284" type="curve" smooth="yes"/>
      <point x="-638" y="-284"/>
      <point x="-680" y="-326"/>
      <point x="-680" y="-378" type="curve" smooth="yes"/>
      <point x="-680" y="-430"/>
      <point x="-638" y="-472"/>
    </contour>
  </outline>
</glyph>
<glyph name="dieresisbelowcomb" format="2">
  <unicode hex="0324"/>
  <anchor x="-586" y="0" name="_bottom"/>
  <outline>
    <contour>
      <point x="-424" y="-390" type="curve" smooth="yes"/>
      <point x="-372" y="-390"/>
      <point x="-330" y="-348"/>
      <point x="-330" y="-296" type="curve" smooth="yes"/>
      <point x="-330" y="-244"/>
      <point x="-372" y="-202"/>
      <point x="-424" y="-202" type="curve" smooth="yes"/>
      <point x="-476" y="-202"/>
      <point x="-518" y="-244"/>
      <point x="-518" y="-296" type="curve" smooth="yes"/>
      <point x="-518" y="-348"/>
      <point x="-476" y="-390"/>
    </contour>
    <contour>
      <point x="-748" y="-390" type="curve" smooth="yes"/>
      <point x="-696" y="-390"/>
      <point x="-654" y="-348"/>
      <point x="-654" y="-296" type="curve" smooth="yes"/>
      <point x="-654" y="-244"/>
      <point x="-696" y="-202"/>
      <point x="-748" y="-202" type="curve" smooth="yes"/>
      <point x="-800" y="-202"/>
      <point x="-842" y="-244"/>
      <point x="-842" y="-296" type="curve" smooth="yes"/>
      <point x="-842" y="-348"/>
      <point x="-800" y="-390"/>
    </contour>
  </outline>
</glyph>
<glyph name="cedillacomb" format="2">
  <unicode hex="0327"/>
  <anchor x="-586" y="0" name="_bottom"/>
  <outline>
    <contour>
      <point x="-602" y="-450" type="curve" smooth="yes"/>
      <point x="-508" y="-450"/>
      <point x="-368" y="-402"/>
      <point x="-368" y="-266" type="curve" smooth="yes"/>
      <point x="-368" y="-160"/>
      <point x="-462" y="-102"/>
      <point x="-588" y="-94" type="curve"/>
      <point x="-548" y="40" type="line"/>
      <point x="-630" y="40" type="line"/>
      <point x="-684" y="-126" type="line"/>
      <point x="-650" y="-186" type="line"/>
      <point x="-564" y="-174"/>
      <point x="-476" y="-200"/>
      <point x="-476" y="-270" type="curve" smooth="yes"/>
      <point x="-476" y="-336"/>
      <point x="-546" y="-360"/>
      <point x="-606" y="-360" type="curve" smooth="yes"/>
      <point x="-670" y="-360"/>
      <point x="-744" y="-336"/>
      <point x="-768" y="-308" type="curve"/>
      <point x="-806" y="-394" type="line"/>
      <point x="-750" y="-430"/>
      <point x="-682" y="-450"/>
    </contour>
  </outline>
</glyph>
<glyph name="brevebelowcomb" format="2">
  <unicode hex="032E"/>
  <anchor x="-586" y="0" name="_bottom"/>
  <outline>
    <contour>
      <point x="-586" y="-554" type="curve" smooth="yes"/>
      <point x="-396" y="-554"/>
      <point x="-256" y="-406"/>
      <point x="-262" y="-210" type="curve"/>
      <point x="-366" y="-210" type="line"/>
      <point x="-358" y="-358"/>
      <point x="-446" y="-458"/>
      <point x="-586" y="-458" type="curve" smooth="yes"/>
      <point x="-726" y="-458"/>
      <point x="-816" y="-358"/>
      <point x="-810" y="-210" type="curve"/>
      <point x="-912" y="-210" type="line"/>
      <point x="-920" y="-408"/>
      <point x="-782" y="-554"/>
    </contour>
  </outline>
</glyph>
<glyph name="lowernumeral-greek" format="2">
  <advance width="420"/>
  <unicode hex="0375"/>
  <outline>
    <contour>
      <point x="92" y="-420" type="line"/>
      <point x="202" y="-420" type="line"/>
      <point x="294" y="108" type="line"/>
      <point x="206" y="108" type="line"/>
    </contour>
  </outline>
</glyph>
<glyph name="Xi" format="2">
  <advance width="1232"/>
  <unicode hex="039E"/>
  <outline>
    <contour>
      <point x="150" y="0" type="line"/>
      <point x="1082" y="0" type="line"/>
      <point x="1082" y="108" type="line"/>
      <point x="150" y="108" type="line"/>
    </contour>
    <contour>
      <point x="250" y="674" type="line"/>
      <point x="982" y="674" type="line"/>
      <point x="982" y="782" type="line"/>
      <point x="250" y="782" type="line"/>
    </contour>
    <contour>
      <point x="160" y="1292" type="line"/>
      <point x="1072" y="1292" type="line"/>
      <point x="1072" y="1400" type="line"/>
      <point x="160" y="1400" type="line"/>
    </contour>
  </outline>
</glyph>
<glyph name="Sigma" format="2">
  <advance width="1116"/>
  <unicode hex="03A3"/>
  <outline>
    <contour>
      <point x="94" y="0" type="line"/>
      <point x="1010" y="0" type="line"/>
      <point x="1010" y="108" type="line"/>
      <point x="234" y="108" type="line"/>
      <point x="670" y="724" type="line"/>
      <point x="250" y="1292" type="line"/>
      <point x="986" y="1292" type="line"/>
      <point x="986" y="1400" type="line"/>
      <point x="104" y="1400" type="line"/>
      <point x="104" y="1302" type="line"/>
      <point x="534" y="718" type="line"/>
      <point x="94" y="98" type="line"/>
    </contour>
  </outline>
</glyph>
<glyph name="epsilon" format="2">
  <advance width="993"/>
  <unicode hex="03B5"/>
  <anchor x="450" y="960" name="top"/>
  <outline>
    <contour>
      <point x="506" y="-30" type="curve" smooth="yes"/>
      <point x="662" y="-30"/>
      <point x="796" y="6"/>
      <point x="914" y="86" type="curve"/>
      <point x="846" y="178" type="line"/>
      <point x="774" y="112"/>
      <point x="650" y="78"/>
      <point x="512" y="78" type="curve" smooth="yes"/>
      <point x="324" y="78"/>
      <point x="210" y="136"/>
      <point x="210" y="256" type="curve" smooth="yes"/>
      <point x="210" y="380"/>
      <point x="330" y="440"/>
      <point x="502" y="440" type="curve" smooth="yes"/>
      <point x="670" y="440" type="line"/>
      <point x="670" y="544" type="line"/>
      <point x="502" y="544" type="line" smooth="yes"/>
      <point x="346" y="544"/>
      <point x="230" y="612"/>
      <point x="230" y="722" type="curve" smooth="yes"/>
      <point x="230" y="842"/>
      <point x="368" y="880"/>
      <point x="520" y="880" type="curve" smooth="yes"/>
      <point x="638" y="880"/>
      <point x="736" y="858"/>
      <point x="812" y="808" type="curve"/>
      <point x="870" y="906" type="line"/>
      <point x="762" y="964"/>
      <point x="650" y="988"/>
      <point x="526" y="988" type="curve" smooth="yes"/>
      <point x="308" y="988"/>
      <point x="114" y="904"/>
      <point x="114" y="720" type="curve" smooth="yes"/>
      <point x="114" y="636"/>
      <point x="154" y="550"/>
      <point x="300" y="492" type="curve"/>
      <point x="138" y="436"/>
      <point x="90" y="354"/>
      <point x="90" y="250" type="curve" smooth="yes"/>
      <point x="90" y="54"/>
      <point x="260" y="-30"/>
    </contour>
  </outline>
</glyph>
<glyph name="zeta" format="2">
  <advance width="886"/>
  <unicode hex="03B6"/>
  <outline>
    <contour>
      <point x="739" y="-436" type="line"/>
      <point x="798" y="-316"/>
      <point x="823" y="-231"/>
      <point x="823" y="-156" type="curve" smooth="yes"/>
      <point x="823" y="209"/>
      <point x="201" y="94"/>
      <point x="201" y="460" type="curve" smooth="yes"/>
      <point x="201" y="723"/>
      <point x="523" y="1053"/>
      <point x="852" y="1344" type="curve"/>
      <point x="852" y="1440" type="line"/>
      <point x="108" y="1440" type="line"/>
      <point x="108" y="1336" type="line"/>
      <point x="692" y="1336" type="line"/>
      <point x="377" y="1051"/>
      <point x="80" y="751"/>
      <point x="80" y="458" type="curve" smooth="yes"/>
      <point x="80" y="16"/>
      <point x="711" y="85"/>
      <point x="711" y="-178" type="curve" smooth="yes"/>
      <point x="711" y="-229"/>
      <point x="697" y="-291"/>
      <point x="639" y="-400" type="curve"/>
    </contour>
  </outline>
</glyph>
<glyph name="iota" format="2">
  <advance width="572"/>
  <unicode hex="03B9"/>
  <anchor x="218" y="960" name="top"/>
  <outline>
    <contour>
      <point x="376" y="-28" type="curve" smooth="yes"/>
      <point x="424" y="-28"/>
      <point x="478" y="-14"/>
      <point x="528" y="6" type="curve"/>
      <point x="496" y="106" type="line"/>
      <point x="458" y="90"/>
      <point x="422" y="80"/>
      <point x="392" y="80" type="curve" smooth="yes"/>
      <point x="302" y="80"/>
      <point x="274" y="124"/>
      <point x="274" y="256" type="curve" smooth="yes"/>
      <point x="274" y="960" type="line"/>
      <point x="162" y="960" type="line"/>
      <point x="162" y="180" type="line" smooth="yes"/>
      <point x="162" y="36"/>
      <point x="254" y="-28"/>
    </contour>
  </outline>
</glyph>
<glyph name="lambda" format="2">
  <advance width="1054"/>
  <unicode hex="03BB"/>
  <outline>
    <contour>
      <point x="52" y="0" type="line"/>
      <point x="174" y="0" type="line"/>
      <point x="552" y="846" type="line"/>
      <point x="876" y="0" type="line"/>
      <point x="1002" y="0" type="line"/>
      <point x="508" y="1292" type="line" smooth="yes"/>
      <point x="462" y="1412"/>
      <point x="388" y="1470"/>
      <point x="274" y="1470" type="curve" smooth="yes"/>
      <point x="232" y="1470"/>
      <point x="182" y="1462"/>
      <point x="124" y="1436" type="curve"/>
      <point x="152" y="1336" type="line"/>
      <point x="196" y="1356"/>
      <point x="234" y="1362"/>
      <point x="260" y="1362" type="curve" smooth="yes"/>
      <point x="344" y="1362"/>
      <point x="386" y="1300"/>
      <point x="416" y="1214" type="curve" smooth="yes"/>
      <point x="496" y="984" type="line"/>
    </contour>
  </outline>
</glyph>
<glyph name="nu" format="2">
  <advance width="1025"/>
  <unicode hex="03BD"/>
  <outline>
    <contour>
      <point x="400" y="0" type="line"/>
      <point x="516" y="0" type="line"/>
      <point x="706" y="244"/>
      <point x="855" y="560"/>
      <point x="928" y="955" type="curve"/>
      <point x="808" y="980" type="line"/>
      <point x="750" y="593"/>
      <point x="607" y="302"/>
      <point x="461" y="101" type="curve"/>
      <point x="493" y="75" type="line"/>
      <point x="174" y="960" type="line"/>
      <point x="42" y="960" type="line"/>
    </contour>
  </outline>
</glyph>
<glyph name="xi" format="2">
  <advance width="886"/>
  <unicode hex="03BE"/>
  <outline>
    <contour>
      <point x="739" y="-436" type="line"/>
      <point x="798" y="-316"/>
      <point x="823" y="-231"/>
      <point x="823" y="-156" type="curve" smooth="yes"/>
      <point x="823" y="209"/>
      <point x="201" y="94"/>
      <point x="201" y="460" type="curve" smooth="yes"/>
      <point x="201" y="645"/>
      <point x="340" y="762"/>
      <point x="559" y="762" type="curve" smooth="yes"/>
      <point x="744" y="762" type="line"/>
      <point x="744" y="867" type="line"/>
      <point x="560" y="867" type="line" smooth="yes"/>
      <point x="379" y="867"/>
      <point x="254" y="972"/>
      <point x="254" y="1124" type="curve" smooth="yes"/>
      <point x="254" y="1277"/>
      <point x="363" y="1362"/>
      <point x="558" y="1362" type="curve" smooth="yes"/>
      <point x="662" y="1362"/>
      <point x="751" y="1341"/>
      <point x="826" y="1299" type="curve"/>
      <point x="869" y="1404" type="line"/>
      <point x="781" y="1449"/>
      <point x="683" y="1470"/>
      <point x="567" y="1470" type="curve" smooth="yes"/>
      <point x="302" y="1470"/>
      <point x="137" y="1332"/>
      <point x="137" y="1111" type="curve" smooth="yes"/>
      <point x="137" y="981"/>
      <point x="207" y="877"/>
      <point x="341" y="809" type="curve"/>
      <point x="171" y="736"/>
      <point x="80" y="613"/>
      <point x="80" y="458" type="curve" smooth="yes"/>
      <point x="80" y="16"/>
      <point x="711" y="85"/>
      <point x="711" y="-178" type="curve" smooth="yes"/>
      <point x="711" y="-229"/>
      <point x="697" y="-291"/>
      <point x="639" y="-400" type="curve"/>
    </contour>
  </outline>
</glyph>
<glyph name="pi" format="2">
  <advance width="1206"/>
  <unicode hex="03C0"/>
  <outline>
    <contour>
      <point x="968" y="-28" type="curve" smooth="yes"/>
      <point x="1020" y="-28"/>
      <point x="1076" y="-14"/>
      <point x="1122" y="6" type="curve"/>
      <point x="1092" y="106" type="line"/>
      <point x="1058" y="90"/>
      <point x="1018" y="80"/>
      <point x="980" y="80" type="curve" smooth="yes"/>
      <point x="900" y="80"/>
      <point x="880" y="124"/>
      <point x="880" y="256" type="curve" smooth="yes"/>
      <point x="880" y="852" type="line"/>
      <point x="1106" y="852" type="line"/>
      <point x="1106" y="960" type="line"/>
      <point x="62" y="960" type="line"/>
      <point x="62" y="852" type="line"/>
      <point x="256" y="852" type="line"/>
      <point x="226" y="0" type="line"/>
      <point x="338" y="0" type="line"/>
      <point x="368" y="852" type="line"/>
      <point x="768" y="852" type="line"/>
      <point x="768" y="180" type="line" smooth="yes"/>
      <point x="768" y="36"/>
      <point x="854" y="-28"/>
    </contour>
  </outline>
</glyph>
<glyph name="rho" format="2">
  <advance width="1244"/>
  <unicode hex="03C1"/>
  <outline>
    <contour>
      <point x="160" y="-420" type="line"/>
      <point x="272" y="-420" type="line"/>
      <point x="272" y="170" type="line"/>
      <point x="348" y="50"/>
      <point x="502" y="-30"/>
      <point x="670" y="-30" type="curve" smooth="yes"/>
      <point x="960" y="-30"/>
      <point x="1164" y="202"/>
      <point x="1164" y="480" type="curve" smooth="yes"/>
      <point x="1164" y="762"/>
      <point x="966" y="990"/>
      <point x="658" y="990" type="curve" smooth="yes"/>
      <point x="368" y="990"/>
      <point x="160" y="758"/>
      <point x="160" y="480" type="curve" smooth="yes"/>
    </contour>
    <contour>
      <point x="658" y="78" type="curve" smooth="yes"/>
      <point x="432" y="78"/>
      <point x="272" y="234"/>
      <point x="272" y="480" type="curve" smooth="yes"/>
      <point x="272" y="726"/>
      <point x="432" y="882"/>
      <point x="658" y="882" type="curve" smooth="yes"/>
      <point x="884" y="882"/>
      <point x="1044" y="726"/>
      <point x="1044" y="480" type="curve" smooth="yes"/>
      <point x="1044" y="234"/>
      <point x="884" y="78"/>
    </contour>
  </outline>
</glyph>
<glyph name="sigmafinal" format="2">
  <advance width="954"/>
  <unicode hex="03C2"/>
  <outline>
    <contour>
      <point x="764" y="-436" type="line"/>
      <point x="824" y="-316"/>
      <point x="850" y="-230"/>
      <point x="850" y="-156" type="curve" smooth="yes"/>
      <point x="850" y="-24"/>
      <point x="772" y="50"/>
      <point x="562" y="120" type="curve" smooth="yes"/>
      <point x="322" y="200"/>
      <point x="200" y="288"/>
      <point x="200" y="498" type="curve" smooth="yes"/>
      <point x="200" y="754"/>
      <point x="366" y="882"/>
      <point x="584" y="882" type="curve" smooth="yes"/>
      <point x="684" y="882"/>
      <point x="770" y="854"/>
      <point x="830" y="800" type="curve"/>
      <point x="890" y="900" type="line"/>
      <point x="804" y="962"/>
      <point x="704" y="990"/>
      <point x="590" y="990" type="curve" smooth="yes"/>
      <point x="306" y="990"/>
      <point x="80" y="820"/>
      <point x="80" y="502" type="curve" smooth="yes"/>
      <point x="80" y="234"/>
      <point x="238" y="110"/>
      <point x="526" y="12" type="curve" smooth="yes"/>
      <point x="668" y="-36"/>
      <point x="738" y="-84"/>
      <point x="738" y="-178" type="curve" smooth="yes"/>
      <point x="738" y="-234"/>
      <point x="714" y="-300"/>
      <point x="664" y="-400" type="curve"/>
    </contour>
  </outline>
</glyph>
<glyph name="upsilon" format="2">
  <advance width="1055"/>
  <unicode hex="03C5"/>
  <anchor x="498" y="960" name="top"/>
  <outline>
    <contour>
      <point x="512" y="-30" type="curve" smooth="yes"/>
      <point x="792" y="-30"/>
      <point x="940" y="186"/>
      <point x="940" y="456" type="curve" smooth="yes"/>
      <point x="940" y="642"/>
      <point x="874" y="840"/>
      <point x="748" y="993" type="curve"/>
      <point x="649" y="935" type="line"/>
      <point x="762" y="804"/>
      <point x="820" y="634"/>
      <point x="820" y="456" type="curve" smooth="yes"/>
      <point x="820" y="238"/>
      <point x="723" y="82"/>
      <point x="510" y="80" type="curve" smooth="yes"/>
      <point x="358" y="80"/>
      <point x="262" y="166"/>
      <point x="262" y="348" type="curve" smooth="yes"/>
      <point x="262" y="960" type="line"/>
      <point x="150" y="960" type="line"/>
      <point x="150" y="314" type="line" smooth="yes"/>
      <point x="150" y="128"/>
      <point x="272" y="-30"/>
    </contour>
  </outline>
</glyph>
<glyph name="phi" format="2">
  <advance width="1335"/>
  <unicode hex="03C6"/>
  <outline>
    <contour>
      <point x="582" y="-420" type="line"/>
      <point x="694" y="-420" type="line"/>
      <point x="694" y="600" type="line" smooth="yes"/>
      <point x="694" y="794"/>
      <point x="758" y="882"/>
      <point x="899" y="882" type="curve" smooth="yes"/>
      <point x="1042" y="882"/>
      <point x="1134" y="764"/>
      <point x="1134" y="579" type="curve" smooth="yes"/>
      <point x="1134" y="270"/>
      <point x="962" y="91"/>
      <point x="665" y="91" type="curve" smooth="yes"/>
      <point x="374" y="91"/>
      <point x="205" y="246"/>
      <point x="205" y="513" type="curve" smooth="yes"/>
      <point x="205" y="681"/>
      <point x="263" y="825"/>
      <point x="375" y="936" type="curve"/>
      <point x="276" y="993" type="line"/>
      <point x="151" y="863"/>
      <point x="85" y="697"/>
      <point x="85" y="513" type="curve" smooth="yes"/>
      <point x="85" y="182"/>
      <point x="307" y="-16"/>
      <point x="661" y="-16" type="curve" smooth="yes"/>
      <point x="1025" y="-16"/>
      <point x="1250" y="223"/>
      <point x="1250" y="592" type="curve" smooth="yes"/>
      <point x="1250" y="834"/>
      <point x="1112" y="990"/>
      <point x="899" y="990" type="curve" smooth="yes"/>
      <point x="701" y="990"/>
      <point x="582" y="846"/>
      <point x="582" y="606" type="curve" smooth="yes"/>
    </contour>
  </outline>
</glyph>
<glyph name="psi" format="2">
  <advance width="1363"/>
  <unicode hex="03C8"/>
  <outline>
    <contour>
      <point x="632" y="-420" type="line"/>
      <point x="744" y="-420" type="line"/>
      <point x="744" y="0" type="line"/>
      <point x="1074" y="0"/>
      <point x="1248" y="203"/>
      <point x="1248" y="456" type="curve" smooth="yes"/>
      <point x="1248" y="642"/>
      <point x="1182" y="840"/>
      <point x="1056" y="993" type="curve"/>
      <point x="957" y="935" type="line"/>
      <point x="1070" y="804"/>
      <point x="1128" y="634"/>
      <point x="1128" y="456" type="curve" smooth="yes"/>
      <point x="1128" y="254"/>
      <point x="1008" y="110"/>
      <point x="744" y="108" type="curve"/>
      <point x="744" y="1280" type="line"/>
      <point x="632" y="1280" type="line"/>
      <point x="632" y="108" type="line"/>
      <point x="350" y="120"/>
      <point x="272" y="280"/>
      <point x="272" y="588" type="curve" smooth="yes"/>
      <point x="272" y="960" type="line"/>
      <point x="160" y="960" type="line"/>
      <point x="160" y="554" type="line" smooth="yes"/>
      <point x="160" y="242"/>
      <point x="254" y="14"/>
      <point x="632" y="0" type="curve"/>
    </contour>
  </outline>
</glyph>
<glyph name="omega" format="2">
  <advance width="1526"/>
  <unicode hex="03C9"/>
  <anchor x="763" y="0" name="bottom"/>
  <anchor x="763" y="960" name="top"/>
  <outline>
    <contour>
      <point x="469" y="-20" type="curve" smooth="yes"/>
      <point x="593" y="-20"/>
      <point x="713" y="56"/>
      <point x="763" y="192" type="curve"/>
      <point x="813" y="56"/>
      <point x="933" y="-20"/>
      <point x="1057" y="-20" type="curve" smooth="yes"/>
      <point x="1289" y="-20"/>
      <point x="1411" y="192"/>
      <point x="1411" y="456" type="curve" smooth="yes"/>
      <point x="1411" y="642"/>
      <point x="1345" y="840"/>
      <point x="1219" y="993" type="curve"/>
      <point x="1120" y="935" type="line"/>
      <point x="1233" y="804"/>
      <point x="1291" y="634"/>
      <point x="1291" y="456" type="curve" smooth="yes"/>
      <point x="1291" y="244"/>
      <point x="1215" y="92"/>
      <point x="1047" y="90" type="curve" smooth="yes"/>
      <point x="882" y="88"/>
      <point x="823" y="222"/>
      <point x="823" y="428" type="curve" smooth="yes"/>
      <point x="823" y="694" type="line"/>
      <point x="703" y="694" type="line"/>
      <point x="703" y="428" type="line" smooth="yes"/>
      <point x="703" y="222"/>
      <point x="645" y="88"/>
      <point x="479" y="90" type="curve" smooth="yes"/>
      <point x="311" y="92"/>
      <point x="235" y="246"/>
      <point x="235" y="456" type="curve" smooth="yes"/>
      <point x="235" y="634"/>
      <point x="293" y="804"/>
      <point x="406" y="935" type="curve"/>
      <point x="307" y="993" type="line"/>
      <point x="181" y="840"/>
      <point x="115" y="642"/>
      <point x="115" y="456" type="curve" smooth="yes"/>
      <point x="115" y="192"/>
      <point x="237" y="-20"/>
    </contour>
  </outline>
</glyph>
<glyph name="KaiSymbol" format="2">
  <advance width="1314"/>
  <unicode hex="03CF"/>
  <outline>
    <contour>
      <point x="774" y="-420" type="line"/>
      <point x="914" y="-420" type="line"/>
      <point x="1224" y="0" type="line"/>
      <point x="630" y="776" type="line"/>
      <point x="1136" y="1400" type="line"/>
      <point x="998" y="1400" type="line"/>
      <point x="316" y="564" type="line"/>
      <point x="316" y="1400" type="line"/>
      <point x="200" y="1400" type="line"/>
      <point x="200" y="0" type="line"/>
      <point x="316" y="0" type="line"/>
      <point x="316" y="394" type="line"/>
      <point x="554" y="684" type="line"/>
      <point x="1080" y="-4" type="line"/>
    </contour>
  </outline>
</glyph>
<glyph name="E-cy" format="2">
  <advance width="1403"/>
  <unicode hex="0404"/>
  <outline>
    <contour>
      <point x="826" y="-30" type="curve" smooth="yes"/>
      <point x="1016" y="-30"/>
      <point x="1180" y="18"/>
      <point x="1322" y="130" type="curve"/>
      <point x="1266" y="230" type="line"/>
      <point x="1146" y="124"/>
      <point x="1006" y="82"/>
      <point x="850" y="82" type="curve" smooth="yes"/>
      <point x="474" y="82"/>
      <point x="232" y="308"/>
      <point x="232" y="702" type="curve" smooth="yes"/>
      <point x="232" y="1082"/>
      <point x="472" y="1320"/>
      <point x="836" y="1320" type="curve" smooth="yes"/>
      <point x="986" y="1320"/>
      <point x="1112" y="1280"/>
      <point x="1210" y="1198" type="curve"/>
      <point x="1278" y="1292" type="line"/>
      <point x="1172" y="1380"/>
      <point x="1018" y="1430"/>
      <point x="826" y="1430" type="curve" smooth="yes"/>
      <point x="410" y="1430"/>
      <point x="112" y="1122"/>
      <point x="112" y="702" type="curve" smooth="yes"/>
      <point x="112" y="264"/>
      <point x="392" y="-30"/>
    </contour>
    <contour>
      <point x="210" y="688" type="line"/>
      <point x="1084" y="688" type="line"/>
      <point x="1084" y="796" type="line"/>
      <point x="210" y="796" type="line"/>
    </contour>
  </outline>
</glyph>
<glyph name="Lje-cy" format="2">
  <advance width="2130"/>
  <unicode hex="0409"/>
  <outline>
    <contour>
      <point x="124" y="-20" type="line"/>
      <point x="368" y="74"/>
      <point x="470" y="226"/>
      <point x="470" y="960" type="curve" smooth="yes"/>
      <point x="470" y="1292" type="line"/>
      <point x="1120" y="1292" type="line"/>
      <point x="1236" y="1400" type="line"/>
      <point x="354" y="1400" type="line"/>
      <point x="354" y="960" type="line" smooth="yes"/>
      <point x="354" y="292"/>
      <point x="286" y="162"/>
      <point x="64" y="88" type="curve"/>
    </contour>
    <contour>
      <point x="1236" y="108" type="line"/>
      <point x="1236" y="688" type="line"/>
      <point x="1586" y="688" type="line" smooth="yes"/>
      <point x="1802" y="688"/>
      <point x="1934" y="572"/>
      <point x="1934" y="392" type="curve" smooth="yes"/>
      <point x="1934" y="206"/>
      <point x="1806" y="108"/>
      <point x="1584" y="108" type="curve" smooth="yes"/>
    </contour>
    <contour>
      <point x="1120" y="0" type="line"/>
      <point x="1570" y="0" type="line" smooth="yes"/>
      <point x="1878" y="0"/>
      <point x="2050" y="138"/>
      <point x="2050" y="396" type="curve" smooth="yes"/>
      <point x="2050" y="646"/>
      <point x="1856" y="796"/>
      <point x="1572" y="796" type="curve" smooth="yes"/>
      <point x="1236" y="796" type="line"/>
      <point x="1236" y="1400" type="line"/>
      <point x="1120" y="1400" type="line"/>
    </contour>
  </outline>
</glyph>
<glyph name="Tshe-cy" format="2">
  <advance width="1610"/>
  <unicode hex="040B"/>
  <guideline x="650"/>
  <guideline x="494" y="0" angle="180"/>
  <outline>
    <contour>
      <point x="70" y="1292" type="line"/>
      <point x="1292" y="1292" type="line"/>
      <point x="1292" y="1400" type="line"/>
      <point x="70" y="1400" type="line"/>
    </contour>
    <contour>
      <point x="484" y="0" type="line"/>
      <point x="600" y="0" type="line"/>
      <point x="600" y="702" type="line"/>
      <point x="720" y="730"/>
      <point x="834" y="748"/>
      <point x="992" y="748" type="curve" smooth="yes"/>
      <point x="1240" y="748"/>
      <point x="1374" y="644"/>
      <point x="1374" y="358" type="curve" smooth="yes"/>
      <point x="1374" y="0" type="line"/>
      <point x="1490" y="0" type="line"/>
      <point x="1490" y="378" type="line" smooth="yes"/>
      <point x="1490" y="720"/>
      <point x="1318" y="866"/>
      <point x="992" y="866" type="curve" smooth="yes"/>
      <point x="846" y="866"/>
      <point x="728" y="846"/>
      <point x="600" y="812" type="curve"/>
      <point x="600" y="1400" type="line"/>
      <point x="484" y="1400" type="line"/>
    </contour>
  </outline>
</glyph>
<glyph name="De-cy" format="2">
  <advance width="1556"/>
  <unicode hex="0414"/>
  <outline>
    <contour>
      <point x="1160" y="0" type="line"/>
      <point x="1276" y="0" type="line"/>
      <point x="1276" y="1400" type="line"/>
      <point x="354" y="1400" type="line"/>
      <point x="354" y="960" type="line" smooth="yes"/>
      <point x="354" y="298"/>
      <point x="292" y="150"/>
      <point x="44" y="92" type="curve"/>
      <point x="90" y="8" type="line"/>
      <point x="358" y="74"/>
      <point x="470" y="246"/>
      <point x="470" y="960" type="curve" smooth="yes"/>
      <point x="470" y="1292" type="line"/>
      <point x="1160" y="1292" type="line"/>
    </contour>
    <contour>
      <point x="44" y="-360" type="line"/>
      <point x="152" y="-360" type="line"/>
      <point x="152" y="0" type="line"/>
      <point x="1388" y="0" type="line"/>
      <point x="1388" y="-360" type="line"/>
      <point x="1496" y="-360" type="line"/>
      <point x="1496" y="108" type="line"/>
      <point x="226" y="108" type="line"/>
      <point x="164" y="82" type="line"/>
      <point x="44" y="92" type="line"/>
    </contour>
  </outline>
</glyph>
<glyph name="Ze-cy" format="2">
  <advance width="1181"/>
  <unicode hex="0417"/>
  <anchor x="571" y="0" name="bottom"/>
  <anchor x="559" y="1400" name="top"/>
  <outline>
    <contour>
      <point x="551" y="-30" type="curve" smooth="yes"/>
      <point x="855" y="-30"/>
      <point x="1059" y="158"/>
      <point x="1061" y="366" type="curve" smooth="yes"/>
      <point x="1063" y="564"/>
      <point x="935" y="692"/>
      <point x="779" y="736" type="curve"/>
      <point x="889" y="772"/>
      <point x="1017" y="916"/>
      <point x="1017" y="1058" type="curve" smooth="yes"/>
      <point x="1017" y="1290"/>
      <point x="843" y="1430"/>
      <point x="565" y="1430" type="curve" smooth="yes"/>
      <point x="393" y="1430"/>
      <point x="241" y="1376"/>
      <point x="133" y="1278" type="curve"/>
      <point x="197" y="1190" type="line"/>
      <point x="293" y="1274"/>
      <point x="417" y="1318"/>
      <point x="559" y="1318" type="curve" smooth="yes"/>
      <point x="769" y="1318"/>
      <point x="901" y="1224"/>
      <point x="901" y="1056" type="curve" smooth="yes"/>
      <point x="901" y="882"/>
      <point x="767" y="778"/>
      <point x="565" y="778" type="curve" smooth="yes"/>
      <point x="311" y="778" type="line"/>
      <point x="311" y="670" type="line"/>
      <point x="575" y="670" type="line" smooth="yes"/>
      <point x="829" y="670"/>
      <point x="945" y="568"/>
      <point x="945" y="376" type="curve" smooth="yes"/>
      <point x="943" y="200"/>
      <point x="793" y="82"/>
      <point x="551" y="82" type="curve" smooth="yes"/>
      <point x="391" y="82"/>
      <point x="245" y="136"/>
      <point x="151" y="226" type="curve"/>
      <point x="81" y="126" type="line"/>
      <point x="193" y="28"/>
      <point x="359" y="-30"/>
    </contour>
  </outline>
</glyph>
<glyph name="El-cy" format="2">
  <advance width="1476"/>
  <unicode hex="041B"/>
  <outline>
    <contour>
      <point x="124" y="-20" type="line"/>
      <point x="368" y="74"/>
      <point x="470" y="226"/>
      <point x="470" y="960" type="curve" smooth="yes"/>
      <point x="470" y="1292" type="line"/>
      <point x="1160" y="1292" type="line"/>
      <point x="1160" y="0" type="line"/>
      <point x="1276" y="0" type="line"/>
      <point x="1276" y="1400" type="line"/>
      <point x="354" y="1400" type="line"/>
      <point x="354" y="960" type="line" smooth="yes"/>
      <point x="354" y="292"/>
      <point x="286" y="162"/>
      <point x="64" y="88" type="curve"/>
    </contour>
  </outline>
</glyph>
<glyph name="U-cy" format="2">
  <advance width="1196"/>
  <unicode hex="0423"/>
  <guideline x="509" y="488" angle="62.8448"/>
  <anchor x="648" y="1400" name="top"/>
  <outline>
    <contour>
      <point x="174" y="-20" type="line"/>
      <point x="404" y="58"/>
      <point x="564" y="224"/>
      <point x="730" y="550" type="curve" smooth="yes"/>
      <point x="1166" y="1400" type="line"/>
      <point x="1032" y="1400" type="line"/>
      <point x="606" y="546" type="line" smooth="yes"/>
      <point x="478" y="290"/>
      <point x="312" y="150"/>
      <point x="114" y="90" type="curve"/>
    </contour>
    <contour>
      <point x="604" y="492" type="line"/>
      <point x="680" y="608" type="line"/>
      <point x="222" y="1400" type="line"/>
      <point x="78" y="1400" type="line"/>
    </contour>
  </outline>
</glyph>
<glyph name="Softsign-cy" format="2">
  <advance width="1210"/>
  <unicode hex="042C"/>
  <guideline x="129" y="700" angle="90"/>
  <anchor x="258" y="1090" name="bar"/>
  <outline>
    <contour>
      <point x="200" y="0" type="line"/>
      <point x="650" y="0" type="line" smooth="yes"/>
      <point x="958" y="0"/>
      <point x="1130" y="138"/>
      <point x="1130" y="396" type="curve" smooth="yes"/>
      <point x="1130" y="646"/>
      <point x="936" y="796"/>
      <point x="652" y="796" type="curve" smooth="yes"/>
      <point x="316" y="796" type="line"/>
      <point x="316" y="1400" type="line"/>
      <point x="200" y="1400" type="line"/>
    </contour>
    <contour>
      <point x="316" y="108" type="line"/>
      <point x="316" y="688" type="line"/>
      <point x="666" y="688" type="line" smooth="yes"/>
      <point x="882" y="688"/>
      <point x="1014" y="572"/>
      <point x="1014" y="392" type="curve" smooth="yes"/>
      <point x="1014" y="206"/>
      <point x="886" y="108"/>
      <point x="664" y="108" type="curve" smooth="yes"/>
    </contour>
  </outline>
</glyph>
<glyph name="Ereversed-cy" format="2">
  <advance width="1394"/>
  <unicode hex="042D"/>
  <guideline x="46" y="113" angle="90"/>
  <anchor x="608" y="0" name="bottom"/>
  <anchor x="608" y="1400" name="top"/>
  <outline>
    <contour>
      <point x="584" y="-30" type="curve" smooth="yes"/>
      <point x="998" y="-30"/>
      <point x="1282" y="258"/>
      <point x="1282" y="718" type="curve" smooth="yes"/>
      <point x="1282" y="1144"/>
      <point x="1006" y="1430"/>
      <point x="600" y="1430" type="curve" smooth="yes"/>
      <point x="398" y="1430"/>
      <point x="230" y="1374"/>
      <point x="120" y="1278" type="curve"/>
      <point x="184" y="1190" type="line"/>
      <point x="290" y="1278"/>
      <point x="428" y="1320"/>
      <point x="588" y="1320" type="curve" smooth="yes"/>
      <point x="926" y="1320"/>
      <point x="1162" y="1102"/>
      <point x="1162" y="716" type="curve" smooth="yes"/>
      <point x="1162" y="300"/>
      <point x="938" y="82"/>
      <point x="584" y="82" type="curve" smooth="yes"/>
      <point x="418" y="82"/>
      <point x="264" y="126"/>
      <point x="140" y="232" type="curve"/>
      <point x="70" y="134" type="line"/>
      <point x="214" y="18"/>
      <point x="396" y="-30"/>
    </contour>
    <contour>
      <point x="310" y="688" type="line"/>
      <point x="1184" y="688" type="line"/>
      <point x="1184" y="796" type="line"/>
      <point x="310" y="796" type="line"/>
    </contour>
  </outline>
</glyph>
<glyph name="be-cy" format="2">
  <advance width="1179"/>
  <unicode hex="0431"/>
  <guideline x="329" y="713" angle="14.7968"/>
  <outline>
    <contour>
      <point x="609" y="-30" type="curve" smooth="yes"/>
      <point x="901" y="-30"/>
      <point x="1099" y="202"/>
      <point x="1099" y="480" type="curve" smooth="yes"/>
      <point x="1099" y="758"/>
      <point x="905" y="990"/>
      <point x="623" y="990" type="curve" smooth="yes"/>
      <point x="425" y="990"/>
      <point x="287" y="892"/>
      <point x="203" y="744" type="curve"/>
      <point x="225" y="1014"/>
      <point x="295" y="1196"/>
      <point x="567" y="1258" type="curve" smooth="yes"/>
      <point x="1013" y="1358" type="line"/>
      <point x="989" y="1470" type="line"/>
      <point x="529" y="1366" type="line" smooth="yes"/>
      <point x="197" y="1290"/>
      <point x="95" y="1028"/>
      <point x="95" y="590" type="curve" smooth="yes"/>
      <point x="95" y="190"/>
      <point x="285" y="-30"/>
    </contour>
    <contour>
      <point x="603" y="78" type="curve" smooth="yes"/>
      <point x="383" y="78"/>
      <point x="227" y="234"/>
      <point x="227" y="480" type="curve" smooth="yes"/>
      <point x="227" y="726"/>
      <point x="383" y="882"/>
      <point x="603" y="882" type="curve" smooth="yes"/>
      <point x="823" y="882"/>
      <point x="979" y="726"/>
      <point x="979" y="480" type="curve" smooth="yes"/>
      <point x="979" y="234"/>
      <point x="823" y="78"/>
    </contour>
  </outline>
</glyph>
<glyph name="ve-cy" format="2">
  <advance width="1089"/>
  <unicode hex="0432"/>
  <outline>
    <contour>
      <point x="170" y="0" type="line"/>
      <point x="606" y="0" type="line" smooth="yes"/>
      <point x="828" y="0"/>
      <point x="972" y="104"/>
      <point x="972" y="272" type="curve" smooth="yes"/>
      <point x="972" y="394"/>
      <point x="898" y="486"/>
      <point x="748" y="518" type="curve"/>
      <point x="750" y="494" type="line"/>
      <point x="868" y="528"/>
      <point x="932" y="614"/>
      <point x="932" y="710" type="curve" smooth="yes"/>
      <point x="932" y="874"/>
      <point x="784" y="960"/>
      <point x="578" y="960" type="curve" smooth="yes"/>
      <point x="170" y="960" type="line"/>
    </contour>
    <contour>
      <point x="282" y="104" type="line"/>
      <point x="282" y="856" type="line"/>
      <point x="568" y="856" type="line" smooth="yes"/>
      <point x="730" y="856"/>
      <point x="820" y="812"/>
      <point x="820" y="700" type="curve" smooth="yes"/>
      <point x="820" y="588"/>
      <point x="728" y="544"/>
      <point x="568" y="544" type="curve" smooth="yes"/>
      <point x="256" y="544" type="line"/>
      <point x="256" y="440" type="line"/>
      <point x="590" y="440" type="line" smooth="yes"/>
      <point x="760" y="440"/>
      <point x="860" y="386"/>
      <point x="860" y="272" type="curve" smooth="yes"/>
      <point x="860" y="158"/>
      <point x="760" y="104"/>
      <point x="590" y="104" type="curve" smooth="yes"/>
    </contour>
  </outline>
</glyph>
<glyph name="de-cy" format="2">
  <advance width="1284"/>
  <unicode hex="0434"/>
  <outline>
    <contour>
      <point x="922" y="0" type="line"/>
      <point x="1034" y="0" type="line"/>
      <point x="1034" y="960" type="line"/>
      <point x="294" y="960" type="line"/>
      <point x="294" y="664" type="line" smooth="yes"/>
      <point x="294" y="292"/>
      <point x="260" y="152"/>
      <point x="60" y="98" type="curve"/>
      <point x="106" y="30" type="line"/>
      <point x="356" y="92"/>
      <point x="406" y="258"/>
      <point x="406" y="664" type="curve" smooth="yes"/>
      <point x="406" y="856" type="line"/>
      <point x="922" y="856" type="line"/>
    </contour>
    <contour>
      <point x="60" y="-300" type="line"/>
      <point x="164" y="-300" type="line"/>
      <point x="164" y="0" type="line"/>
      <point x="1126" y="0" type="line"/>
      <point x="1126" y="-300" type="line"/>
      <point x="1230" y="-300" type="line"/>
      <point x="1230" y="104" type="line"/>
      <point x="178" y="104" type="line"/>
      <point x="162" y="84" type="line"/>
      <point x="60" y="98" type="line"/>
    </contour>
  </outline>
</glyph>
<glyph name="zhe-cy" format="2">
  <advance width="1466"/>
  <unicode hex="0436"/>
  <anchor x="1326" y="0" name="descender"/>
  <anchor x="732" y="960" name="top"/>
  <outline>
    <contour>
      <point x="678" y="0" type="line"/>
      <point x="790" y="0" type="line"/>
      <point x="790" y="460" type="line"/>
      <point x="1046" y="460" type="line"/>
      <point x="1046" y="564" type="line"/>
      <point x="790" y="564" type="line"/>
      <point x="790" y="960" type="line"/>
      <point x="678" y="960" type="line"/>
      <point x="678" y="564" type="line"/>
      <point x="420" y="564" type="line"/>
      <point x="420" y="460" type="line"/>
      <point x="678" y="460" type="line"/>
    </contour>
    <contour>
      <point x="60" y="0" type="line"/>
      <point x="194" y="0" type="line"/>
      <point x="502" y="518" type="line"/>
      <point x="246" y="960" type="line"/>
      <point x="122" y="960" type="line"/>
      <point x="378" y="514" type="line"/>
    </contour>
    <contour>
      <point x="1268" y="0" type="line"/>
      <point x="1406" y="0" type="line"/>
      <point x="1088" y="522" type="line"/>
      <point x="1344" y="960" type="line"/>
      <point x="1224" y="960" type="line"/>
      <point x="964" y="518" type="line"/>
    </contour>
  </outline>
</glyph>
<glyph name="ze-cy" format="2">
  <advance width="1000"/>
  <unicode hex="0437"/>
  <anchor x="494" y="0" name="bottom"/>
  <anchor x="484" y="960" name="top"/>
  <outline>
    <contour>
      <point x="484" y="-20" type="curve" smooth="yes"/>
      <point x="736" y="-20"/>
      <point x="910" y="84"/>
      <point x="910" y="278" type="curve" smooth="yes"/>
      <point x="910" y="402"/>
      <point x="824" y="492"/>
      <point x="666" y="522" type="curve"/>
      <point x="800" y="556"/>
      <point x="874" y="628"/>
      <point x="874" y="738" type="curve" smooth="yes"/>
      <point x="874" y="900"/>
      <point x="724" y="992"/>
      <point x="496" y="992" type="curve" smooth="yes"/>
      <point x="352" y="992"/>
      <point x="208" y="942"/>
      <point x="124" y="868" type="curve"/>
      <point x="178" y="784" type="line"/>
      <point x="260" y="854"/>
      <point x="372" y="888"/>
      <point x="490" y="888" type="curve" smooth="yes"/>
      <point x="652" y="888"/>
      <point x="762" y="832"/>
      <point x="762" y="728" type="curve" smooth="yes"/>
      <point x="762" y="606"/>
      <point x="634" y="562"/>
      <point x="434" y="562" type="curve" smooth="yes"/>
      <point x="258" y="562" type="line"/>
      <point x="258" y="458" type="line"/>
      <point x="436" y="458" type="line" smooth="yes"/>
      <point x="668" y="458"/>
      <point x="798" y="402"/>
      <point x="798" y="280" type="curve" smooth="yes"/>
      <point x="798" y="138"/>
      <point x="674" y="84"/>
      <point x="482" y="84" type="curve" smooth="yes"/>
      <point x="364" y="84"/>
      <point x="242" y="110"/>
      <point x="150" y="182" type="curve"/>
      <point x="84" y="90" type="line"/>
      <point x="188" y="10"/>
      <point x="326" y="-20"/>
    </contour>
  </outline>
</glyph>
<glyph name="el-cy" format="2">
  <advance width="1174"/>
  <unicode hex="043B"/>
  <outline>
    <contour>
      <point x="108" y="-10" type="line"/>
      <point x="350" y="64"/>
      <point x="396" y="232"/>
      <point x="396" y="664" type="curve" smooth="yes"/>
      <point x="396" y="856" type="line"/>
      <point x="892" y="856" type="line"/>
      <point x="892" y="0" type="line"/>
      <point x="1004" y="0" type="line"/>
      <point x="1004" y="960" type="line"/>
      <point x="284" y="960" type="line"/>
      <point x="284" y="664" type="line" smooth="yes"/>
      <point x="284" y="290"/>
      <point x="264" y="150"/>
      <point x="60" y="98" type="curve"/>
    </contour>
  </outline>
</glyph>
<glyph name="em-cy" format="2">
  <advance width="1434"/>
  <unicode hex="043C"/>
  <outline>
    <contour>
      <point x="170" y="0" type="line"/>
      <point x="270" y="0" type="line"/>
      <point x="270" y="804" type="line"/>
      <point x="252" y="794" type="line"/>
      <point x="672" y="222" type="line"/>
      <point x="764" y="222" type="line"/>
      <point x="1172" y="792" type="line"/>
      <point x="1152" y="802" type="line"/>
      <point x="1152" y="0" type="line"/>
      <point x="1264" y="0" type="line"/>
      <point x="1264" y="960" type="line"/>
      <point x="1160" y="960" type="line"/>
      <point x="702" y="304" type="line"/>
      <point x="752" y="306" type="line"/>
      <point x="278" y="960" type="line"/>
      <point x="272" y="960" type="line"/>
      <point x="170" y="960" type="line"/>
    </contour>
  </outline>
</glyph>
<glyph name="che-cy" format="2">
  <advance width="1058"/>
  <unicode hex="0447"/>
  <anchor x="496" y="448" name="center"/>
  <anchor x="888" y="0" name="descender"/>
  <anchor x="776" y="0" name="descender_alt"/>
  <anchor x="494" y="960" name="top"/>
  <outline>
    <contour>
      <point x="776" y="0" type="line"/>
      <point x="888" y="0" type="line"/>
      <point x="888" y="960" type="line"/>
      <point x="776" y="960" type="line"/>
      <point x="776" y="518" type="line"/>
      <point x="694" y="500"/>
      <point x="610" y="488"/>
      <point x="494" y="488" type="curve" smooth="yes"/>
      <point x="290" y="488"/>
      <point x="214" y="574"/>
      <point x="214" y="740" type="curve" smooth="yes"/>
      <point x="214" y="960" type="line"/>
      <point x="102" y="960" type="line"/>
      <point x="102" y="722" type="line" smooth="yes"/>
      <point x="102" y="504"/>
      <point x="212" y="380"/>
      <point x="488" y="380" type="curve" smooth="yes"/>
      <point x="592" y="380"/>
      <point x="676" y="392"/>
      <point x="776" y="418" type="curve"/>
    </contour>
  </outline>
</glyph>
<glyph name="yeru-cy" format="2">
  <advance width="1374"/>
  <unicode hex="044B"/>
  <anchor x="672" y="0" name="bottom"/>
  <anchor x="712" y="960" name="top"/>
  <outline>
    <contour>
      <point x="170" y="0" type="line"/>
      <point x="518" y="0" type="line" smooth="yes"/>
      <point x="750" y="0"/>
      <point x="910" y="112"/>
      <point x="910" y="306" type="curve" smooth="yes"/>
      <point x="910" y="502"/>
      <point x="768" y="616"/>
      <point x="538" y="616" type="curve" smooth="yes"/>
      <point x="256" y="616" type="line"/>
      <point x="256" y="512" type="line"/>
      <point x="532" y="512" type="line" smooth="yes"/>
      <point x="704" y="512"/>
      <point x="790" y="442"/>
      <point x="790" y="306" type="curve" smooth="yes"/>
      <point x="790" y="168"/>
      <point x="700" y="104"/>
      <point x="514" y="104" type="curve" smooth="yes"/>
      <point x="282" y="104" type="line"/>
      <point x="282" y="960" type="line"/>
      <point x="170" y="960" type="line"/>
    </contour>
    <contour>
      <point x="1092" y="0" type="line"/>
      <point x="1204" y="0" type="line"/>
      <point x="1204" y="960" type="line"/>
      <point x="1092" y="960" type="line"/>
    </contour>
  </outline>
</glyph>
<glyph name="softsign-cy" format="2">
  <advance width="1010"/>
  <unicode hex="044C"/>
  <outline>
    <contour>
      <point x="170" y="0" type="line"/>
      <point x="528" y="0" type="line" smooth="yes"/>
      <point x="760" y="0"/>
      <point x="920" y="112"/>
      <point x="920" y="306" type="curve" smooth="yes"/>
      <point x="920" y="502"/>
      <point x="778" y="616"/>
      <point x="548" y="616" type="curve" smooth="yes"/>
      <point x="256" y="616" type="line"/>
      <point x="256" y="512" type="line"/>
      <point x="542" y="512" type="line" smooth="yes"/>
      <point x="714" y="512"/>
      <point x="800" y="442"/>
      <point x="800" y="306" type="curve" smooth="yes"/>
      <point x="800" y="168"/>
      <point x="710" y="104"/>
      <point x="524" y="104" type="curve" smooth="yes"/>
      <point x="282" y="104" type="line"/>
      <point x="282" y="960" type="line"/>
      <point x="170" y="960" type="line"/>
    </contour>
  </outline>
</glyph>
<glyph name="ereversed-cy" format="2">
  <advance width="1012"/>
  <unicode hex="044D"/>
  <anchor x="452" y="0" name="bottom"/>
  <anchor x="452" y="960" name="top"/>
  <outline>
    <contour>
      <point x="432" y="-30" type="curve" smooth="yes"/>
      <point x="730" y="-30"/>
      <point x="932" y="172"/>
      <point x="932" y="492" type="curve" smooth="yes"/>
      <point x="932" y="790"/>
      <point x="734" y="990"/>
      <point x="448" y="990" type="curve" smooth="yes"/>
      <point x="327" y="990"/>
      <point x="187" y="946"/>
      <point x="108" y="874" type="curve"/>
      <point x="166" y="784" type="line"/>
      <point x="235" y="842"/>
      <point x="337" y="882"/>
      <point x="440" y="882" type="curve" smooth="yes"/>
      <point x="670" y="882"/>
      <point x="814" y="740"/>
      <point x="814" y="490" type="curve" smooth="yes"/>
      <point x="814" y="222"/>
      <point x="660" y="78"/>
      <point x="430" y="78" type="curve" smooth="yes"/>
      <point x="325" y="78"/>
      <point x="213" y="114"/>
      <point x="140" y="182" type="curve"/>
      <point x="74" y="92" type="line"/>
      <point x="163" y="2"/>
      <point x="303" y="-30"/>
    </contour>
    <contour>
      <point x="224" y="440" type="line"/>
      <point x="844" y="440" type="line"/>
      <point x="844" y="544" type="line"/>
      <point x="224" y="544" type="line"/>
    </contour>
  </outline>
</glyph>
<glyph name="e-cy" format="2">
  <advance width="1020"/>
  <unicode hex="0454"/>
  <outline>
    <contour>
      <point x="586" y="-30" type="curve" smooth="yes"/>
      <point x="722" y="-30"/>
      <point x="840" y="14"/>
      <point x="946" y="88" type="curve"/>
      <point x="868" y="174" type="line"/>
      <point x="814" y="120"/>
      <point x="708" y="78"/>
      <point x="592" y="78" type="curve" smooth="yes"/>
      <point x="352" y="78"/>
      <point x="200" y="230"/>
      <point x="200" y="482" type="curve" smooth="yes"/>
      <point x="200" y="734"/>
      <point x="354" y="882"/>
      <point x="594" y="882" type="curve" smooth="yes"/>
      <point x="700" y="882"/>
      <point x="793" y="854"/>
      <point x="854" y="808" type="curve"/>
      <point x="924" y="900" type="line"/>
      <point x="830" y="962"/>
      <point x="726" y="990"/>
      <point x="602" y="990" type="curve" smooth="yes"/>
      <point x="300" y="990"/>
      <point x="80" y="778"/>
      <point x="80" y="480" type="curve" smooth="yes"/>
      <point x="80" y="186"/>
      <point x="290" y="-30"/>
    </contour>
    <contour>
      <point x="168" y="440" type="line"/>
      <point x="802" y="440" type="line"/>
      <point x="802" y="544" type="line"/>
      <point x="168" y="544" type="line"/>
    </contour>
  </outline>
</glyph>
<glyph name="lje-cy" format="2">
  <advance width="1692"/>
  <unicode hex="0459"/>
  <outline>
    <contour>
      <point x="108" y="-10" type="line"/>
      <point x="350" y="64"/>
      <point x="396" y="232"/>
      <point x="396" y="664" type="curve" smooth="yes"/>
      <point x="396" y="856" type="line"/>
      <point x="852" y="856" type="line"/>
      <point x="964" y="960" type="line"/>
      <point x="284" y="960" type="line"/>
      <point x="284" y="664" type="line" smooth="yes"/>
      <point x="284" y="290"/>
      <point x="264" y="150"/>
      <point x="60" y="98" type="curve"/>
    </contour>
    <contour>
      <point x="852" y="0" type="line"/>
      <point x="1210" y="0" type="line" smooth="yes"/>
      <point x="1442" y="0"/>
      <point x="1602" y="112"/>
      <point x="1602" y="306" type="curve" smooth="yes"/>
      <point x="1602" y="502"/>
      <point x="1460" y="616"/>
      <point x="1230" y="616" type="curve" smooth="yes"/>
      <point x="938" y="616" type="line"/>
      <point x="938" y="512" type="line"/>
      <point x="1224" y="512" type="line" smooth="yes"/>
      <point x="1396" y="512"/>
      <point x="1482" y="442"/>
      <point x="1482" y="306" type="curve" smooth="yes"/>
      <point x="1482" y="168"/>
      <point x="1392" y="104"/>
      <point x="1206" y="104" type="curve" smooth="yes"/>
      <point x="964" y="104" type="line"/>
      <point x="964" y="960" type="line"/>
      <point x="852" y="960" type="line"/>
    </contour>
  </outline>
</glyph>
<glyph name="Yat-cy" format="2">
  <advance width="1310"/>
  <unicode hex="0462"/>
  <outline>
    <contour>
      <point x="300" y="0" type="line"/>
      <point x="750" y="0" type="line" smooth="yes"/>
      <point x="1058" y="0"/>
      <point x="1230" y="138"/>
      <point x="1230" y="396" type="curve" smooth="yes"/>
      <point x="1230" y="646"/>
      <point x="1036" y="796"/>
      <point x="752" y="796" type="curve" smooth="yes"/>
      <point x="372" y="796" type="line"/>
      <point x="372" y="688" type="line"/>
      <point x="766" y="688" type="line" smooth="yes"/>
      <point x="982" y="688"/>
      <point x="1114" y="572"/>
      <point x="1114" y="392" type="curve" smooth="yes"/>
      <point x="1114" y="206"/>
      <point x="986" y="108"/>
      <point x="764" y="108" type="curve" smooth="yes"/>
      <point x="416" y="108" type="line"/>
      <point x="418" y="1440" type="line"/>
      <point x="302" y="1440" type="line"/>
    </contour>
    <contour>
      <point x="-54" y="1046" type="line"/>
      <point x="770" y="1046" type="line"/>
      <point x="770" y="1134" type="line"/>
      <point x="-54" y="1134" type="line"/>
    </contour>
  </outline>
</glyph>
<glyph name="Izhitsa-cy" format="2">
  <advance width="1276"/>
  <unicode hex="0474"/>
  <outline>
    <contour>
      <point x="590" y="0" type="line"/>
      <point x="690" y="0" type="line"/>
      <point x="1050" y="1004" type="line" smooth="yes"/>
      <point x="1124" y="1210"/>
      <point x="1194" y="1290"/>
      <point x="1360" y="1310" type="curve"/>
      <point x="1300" y="1420" type="line"/>
      <point x="1104" y="1382"/>
      <point x="1026" y="1292"/>
      <point x="926" y="1000" type="curve" smooth="yes"/>
      <point x="642" y="176" type="line"/>
      <point x="160" y="1400" type="line"/>
      <point x="30" y="1400" type="line"/>
    </contour>
  </outline>
</glyph>
<glyph name="izhitsa-cy" format="2">
  <advance width="1016"/>
  <unicode hex="0475"/>
  <outline>
    <contour>
      <point x="424" y="0" type="line"/>
      <point x="546" y="0" type="line"/>
      <point x="752" y="556" type="line" smooth="yes"/>
      <point x="834" y="776"/>
      <point x="902" y="832"/>
      <point x="1004" y="856" type="curve"/>
      <point x="964" y="970" type="line"/>
      <point x="832" y="946"/>
      <point x="746" y="876"/>
      <point x="656" y="618" type="curve" smooth="yes"/>
      <point x="488" y="134" type="line"/>
      <point x="174" y="960" type="line"/>
      <point x="42" y="960" type="line"/>
    </contour>
  </outline>
</glyph>
<glyph name="ghemiddlehook-cy" format="2">
  <advance width="1056"/>
  <unicode hex="0495"/>
  <anchor x="342" y="486" name="bar"/>
  <anchor x="282" y="0" name="descender"/>
  <anchor x="470" y="960" name="top"/>
  <outline>
    <contour>
      <point x="620" y="-192" type="line"/>
      <point x="834" y="-120"/>
      <point x="936" y="54"/>
      <point x="936" y="226" type="curve" smooth="yes"/>
      <point x="936" y="462"/>
      <point x="752" y="586"/>
      <point x="492" y="586" type="curve" smooth="yes"/>
      <point x="404" y="586"/>
      <point x="304" y="572"/>
      <point x="198" y="534" type="curve"/>
      <point x="196" y="436" type="line"/>
      <point x="292" y="470"/>
      <point x="382" y="486"/>
      <point x="484" y="486" type="curve" smooth="yes"/>
      <point x="680" y="486"/>
      <point x="824" y="408"/>
      <point x="824" y="222" type="curve" smooth="yes"/>
      <point x="824" y="90"/>
      <point x="742" y="-48"/>
      <point x="570" y="-110" type="curve"/>
    </contour>
    <component base="ge-cy"/>
  </outline>
</glyph>
<glyph name="Kabashkir-cy" format="2">
  <advance width="1598"/>
  <unicode hex="04A0"/>
  <anchor x="1416" y="0" name="descender"/>
  <anchor x="922" y="1400" name="top"/>
  <outline>
    <contour>
      <point x="484" y="1292" type="line"/>
      <point x="600" y="1400" type="line"/>
      <point x="70" y="1400" type="line"/>
      <point x="70" y="1292" type="line"/>
    </contour>
    <component base="Ka-cy" xOffset="284"/>
  </outline>
</glyph>
<glyph name="kabashkir-cy" format="2">
  <advance width="1226"/>
  <unicode hex="04A1"/>
  <outline>
    <contour>
      <point x="1026" y="0" type="line"/>
      <point x="1166" y="0" type="line"/>
      <point x="812" y="522" type="line"/>
      <point x="1094" y="960" type="line"/>
      <point x="974" y="960" type="line"/>
      <point x="688" y="518" type="line"/>
    </contour>
    <contour>
      <point x="370" y="0" type="line"/>
      <point x="482" y="0" type="line"/>
      <point x="480" y="460" type="line"/>
      <point x="766" y="460" type="line"/>
      <point x="766" y="564" type="line"/>
      <point x="480" y="564" type="line"/>
      <point x="482" y="960" type="line"/>
      <point x="370" y="960" type="line"/>
    </contour>
    <contour>
      <point x="52" y="856" type="line"/>
      <point x="370" y="856" type="line"/>
      <point x="482" y="960" type="line"/>
      <point x="52" y="960" type="line"/>
    </contour>
  </outline>
</glyph>
<glyph name="chekhakassian-cy" format="2">
  <advance width="1056"/>
  <unicode hex="04CC"/>
  <anchor x="776" y="0" name="_descender"/>
  <anchor x="494" y="448" name="center"/>
  <anchor x="886" y="0" name="descender"/>
  <anchor x="774" y="0" name="descender_alt"/>
  <anchor x="492" y="960" name="top"/>
  <outline>
    <contour>
      <point x="540" y="-300" type="line"/>
      <point x="644" y="-300" type="line"/>
      <point x="644" y="0" type="line"/>
      <point x="856" y="0" type="line"/>
      <point x="856" y="104" type="line"/>
      <point x="540" y="104" type="line"/>
    </contour>
    <component base="che-cy"/>
  </outline>
</glyph>
<glyph name="obarred-cy" format="2">
  <advance width="1172"/>
  <unicode hex="04E9"/>
  <outline>
    <contour>
      <point x="152" y="440" type="line"/>
      <point x="1022" y="440" type="line"/>
      <point x="1022" y="544" type="line"/>
      <point x="152" y="544" type="line"/>
    </contour>
    <contour>
      <point x="586" y="-30" type="curve" smooth="yes"/>
      <point x="876" y="-30"/>
      <point x="1092" y="202"/>
      <point x="1092" y="480" type="curve" smooth="yes"/>
      <point x="1092" y="758"/>
      <point x="876" y="990"/>
      <point x="586" y="990" type="curve" smooth="yes"/>
      <point x="296" y="990"/>
      <point x="80" y="758"/>
      <point x="80" y="480" type="curve" smooth="yes"/>
      <point x="80" y="202"/>
      <point x="296" y="-30"/>
    </contour>
    <contour>
      <point x="586" y="78" type="curve" smooth="yes"/>
      <point x="360" y="78"/>
      <point x="200" y="234"/>
      <point x="200" y="480" type="curve" smooth="yes"/>
      <point x="200" y="726"/>
      <point x="360" y="882"/>
      <point x="586" y="882" type="curve" smooth="yes"/>
      <point x="812" y="882"/>
      <point x="972" y="726"/>
      <point x="972" y="480" type="curve" smooth="yes"/>
      <point x="972" y="234"/>
      <point x="812" y="78"/>
    </contour>
  </outline>
</glyph>
<glyph name="endash" format="2">
  <advance width="1080"/>
  <unicode hex="2013"/>
  <outline>
    <contour>
      <point x="80" y="514" type="line"/>
      <point x="1000" y="514" type="line"/>
      <point x="1000" y="606" type="line"/>
      <point x="80" y="606" type="line"/>
    </contour>
  </outline>
</glyph>
<glyph name="emdash" format="2">
  <advance width="1680"/>
  <unicode hex="2014"/>
  <outline>
    <contour>
      <point x="80" y="514" type="line"/>
      <point x="1600" y="514" type="line"/>
      <point x="1600" y="606" type="line"/>
      <point x="80" y="606" type="line"/>
    </contour>
  </outline>
</glyph>
<glyph name="quoteleft" format="2">
  <advance width="500"/>
  <unicode hex="2018"/>
  <outline>
    <contour>
      <point x="254" y="996" type="curve" smooth="yes"/>
      <point x="314" y="996"/>
      <point x="358" y="1038"/>
      <point x="358" y="1094" type="curve" smooth="yes"/>
      <point x="358" y="1158"/>
      <point x="310" y="1202"/>
      <point x="248" y="1198" type="curve"/>
      <point x="256" y="1250"/>
      <point x="336" y="1312"/>
      <point x="414" y="1356" type="curve"/>
      <point x="356" y="1420" type="line"/>
      <point x="218" y="1332"/>
      <point x="142" y="1230"/>
      <point x="142" y="1122" type="curve" smooth="yes"/>
      <point x="142" y="1046"/>
      <point x="186" y="996"/>
    </contour>
  </outline>
</glyph>
<glyph name="daggerdbl" format="2">
  <advance width="1208"/>
  <unicode hex="2021"/>
  <outline>
    <contour>
      <point x="554" y="-12" type="line"/>
      <point x="654" y="-12" type="line"/>
      <point x="654" y="404" type="line"/>
      <point x="1072" y="404" type="line"/>
      <point x="1072" y="502" type="line"/>
      <point x="654" y="502" type="line"/>
      <point x="654" y="1086" type="line"/>
      <point x="1072" y="1086" type="line"/>
      <point x="1072" y="1184" type="line"/>
      <point x="654" y="1184" type="line"/>
      <point x="654" y="1600" type="line"/>
      <point x="554" y="1600" type="line"/>
      <point x="554" y="1184" type="line"/>
      <point x="136" y="1184" type="line"/>
      <point x="136" y="1086" type="line"/>
      <point x="554" y="1086" type="line"/>
      <point x="554" y="502" type="line"/>
      <point x="136" y="502" type="line"/>
      <point x="136" y="404" type="line"/>
      <point x="554" y="404" type="line"/>
    </contour>
  </outline>
</glyph>
<glyph name="bullet" format="2">
  <advance width="1040"/>
  <unicode hex="2022"/>
  <outline>
    <contour>
      <point x="520" y="396" type="curve" smooth="yes"/>
      <point x="692" y="396"/>
      <point x="818" y="520"/>
      <point x="818" y="688" type="curve" smooth="yes"/>
      <point x="818" y="856"/>
      <point x="692" y="980"/>
      <point x="520" y="980" type="curve" smooth="yes"/>
      <point x="348" y="980"/>
      <point x="222" y="856"/>
      <point x="222" y="688" type="curve" smooth="yes"/>
      <point x="222" y="520"/>
      <point x="348" y="396"/>
    </contour>
  </outline>
</glyph>
<glyph name="minute" format="2">
  <advance width="420"/>
  <unicode hex="2032"/>
  <outline>
    <contour>
      <point x="116" y="912" type="line"/>
      <point x="204" y="912" type="line"/>
      <point x="318" y="1440" type="line"/>
      <point x="208" y="1440" type="line"/>
    </contour>
  </outline>
</glyph>
<glyph name="guilsinglleft" format="2">
  <advance width="576"/>
  <unicode hex="2039"/>
  <outline>
    <contour>
      <point x="368" y="148" type="line"/>
      <point x="486" y="148" type="line"/>
      <point x="184" y="498" type="line"/>
      <point x="486" y="848" type="line"/>
      <point x="368" y="848" type="line"/>
      <point x="60" y="498" type="line"/>
    </contour>
  </outline>
</glyph>
<glyph name="peseta" format="2">
  <advance width="1296"/>
  <unicode hex="20A7"/>
  <outline>
    <contour>
      <point x="250" y="0" type="line"/>
      <point x="364" y="0" type="line"/>
      <point x="364" y="606" type="line"/>
      <point x="660" y="606" type="line" smooth="yes"/>
      <point x="936" y="606"/>
      <point x="1092" y="744"/>
      <point x="1092" y="1002" type="curve" smooth="yes"/>
      <point x="1092" y="1248"/>
      <point x="912" y="1400"/>
      <point x="662" y="1400" type="curve" smooth="yes"/>
      <point x="250" y="1400" type="line"/>
    </contour>
    <contour>
      <point x="364" y="710" type="line"/>
      <point x="364" y="1296" type="line"/>
      <point x="672" y="1296" type="line" smooth="yes"/>
      <point x="860" y="1296"/>
      <point x="978" y="1178"/>
      <point x="978" y="998" type="curve" smooth="yes"/>
      <point x="978" y="810"/>
      <point x="866" y="710"/>
      <point x="670" y="710" type="curve" smooth="yes"/>
    </contour>
    <component base="_part.currencyBarHorizontalSingle" xOffset="-2" yOffset="310"/>
  </outline>
</glyph>
<glyph name="euro" format="2">
  <advance width="1296"/>
  <unicode hex="20AC"/>
  <outline>
    <contour>
      <point x="820" y="-30" type="curve" smooth="yes"/>
      <point x="976" y="-30"/>
      <point x="1108" y="18"/>
      <point x="1226" y="130" type="curve"/>
      <point x="1180" y="230" type="line"/>
      <point x="1082" y="124"/>
      <point x="966" y="82"/>
      <point x="840" y="82" type="curve" smooth="yes"/>
      <point x="590" y="82"/>
      <point x="414" y="232"/>
      <point x="356" y="496" type="curve"/>
      <point x="880" y="496" type="line"/>
      <point x="880" y="596" type="line"/>
      <point x="340" y="596" type="line"/>
      <point x="334" y="648"/>
      <point x="332" y="742"/>
      <point x="340" y="804" type="curve"/>
      <point x="880" y="804" type="line"/>
      <point x="880" y="904" type="line"/>
      <point x="356" y="904" type="line"/>
      <point x="414" y="1164"/>
      <point x="588" y="1320"/>
      <point x="828" y="1320" type="curve" smooth="yes"/>
      <point x="956" y="1320"/>
      <point x="1058" y="1276"/>
      <point x="1134" y="1198" type="curve"/>
      <point x="1190" y="1292" type="line"/>
      <point x="1098" y="1382"/>
      <point x="974" y="1430"/>
      <point x="820" y="1430" type="curve" smooth="yes"/>
      <point x="542" y="1430"/>
      <point x="328" y="1216"/>
      <point x="260" y="904" type="curve"/>
      <point x="60" y="904" type="line"/>
      <point x="60" y="804" type="line"/>
      <point x="242" y="804" type="line"/>
      <point x="236" y="748"/>
      <point x="234" y="668"/>
      <point x="240" y="596" type="curve"/>
      <point x="60" y="596" type="line"/>
      <point x="60" y="496" type="line"/>
      <point x="252" y="496" type="line"/>
      <point x="310" y="176"/>
      <point x="520" y="-30"/>
    </contour>
  </outline>
</glyph>
<glyph name="rightanglebracket-math" format="2">
  <advance width="1296"/>
  <unicode hex="27E9"/>
  <outline>
    <contour>
      <point x="270" y="-440" type="line"/>
      <point x="1042" y="664" type="line"/>
      <point x="270" y="1768" type="line"/>
      <point x="270" y="1610" type="line"/>
      <point x="930" y="664" type="line"/>
      <point x="270" y="-282" type="line"/>
    </contour>
  </outline>
</glyph>
<glyph name="De-cy.loclBGR" format="2">
  <advance width="1580"/>
  <outline>
    <contour>
      <point x="166" y="0" type="line"/>
      <point x="292" y="0" type="line"/>
      <point x="776" y="1228" type="line"/>
      <point x="1288" y="0" type="line"/>
      <point x="1418" y="0" type="line"/>
      <point x="830" y="1400" type="line"/>
      <point x="730" y="1400" type="line"/>
    </contour>
    <contour>
      <point x="64" y="-360" type="line"/>
      <point x="172" y="-360" type="line"/>
      <point x="172" y="0" type="line"/>
      <point x="1408" y="0" type="line"/>
      <point x="1408" y="-360" type="line"/>
      <point x="1516" y="-360" type="line"/>
      <point x="1516" y="108" type="line"/>
      <point x="64" y="108" type="line"/>
    </contour>
  </outline>
</glyph>
<glyph name="_part.Tse-cy" format="2">
  <advance width="1416"/>
  <anchor x="718" y="0" name="bottom"/>
  <anchor x="1216" y="0" name="descender"/>
  <outline>
    <contour>
      <point x="200" y="0" type="line"/>
      <point x="1216" y="0" type="line"/>
      <point x="1216" y="1400" type="line"/>
      <point x="1100" y="1400" type="line"/>
      <point x="1100" y="108" type="line"/>
      <point x="316" y="108" type="line"/>
      <point x="316" y="1400" type="line"/>
      <point x="200" y="1400" type="line"/>
    </contour>
  </outline>
</glyph>
<glyph name="_part.cedi" format="2">
  <advance width="1296"/>
  <anchor x="714" y="0" name="bottom"/>
  <anchor x="714" y="1400" name="top"/>
  <outline>
    <contour>
      <point x="752" y="-30" type="curve" smooth="yes"/>
      <point x="926" y="-30"/>
      <point x="1074" y="18"/>
      <point x="1204" y="130" type="curve"/>
      <point x="1148" y="226" type="line"/>
      <point x="1040" y="120"/>
      <point x="912" y="78"/>
      <point x="772" y="78" type="curve" smooth="yes"/>
      <point x="434" y="78"/>
      <point x="220" y="306"/>
      <point x="220" y="702" type="curve" smooth="yes"/>
      <point x="220" y="1084"/>
      <point x="434" y="1324"/>
      <point x="760" y="1324" type="curve" smooth="yes"/>
      <point x="898" y="1324"/>
      <point x="1010" y="1284"/>
      <point x="1098" y="1202" type="curve"/>
      <point x="1166" y="1294" type="line"/>
      <point x="1072" y="1378"/>
      <point x="928" y="1430"/>
      <point x="750" y="1430" type="curve" smooth="yes"/>
      <point x="376" y="1430"/>
      <point x="102" y="1114"/>
      <point x="102" y="684" type="curve" smooth="yes"/>
      <point x="102" y="258"/>
      <point x="358" y="-30"/>
    </contour>
  </outline>
</glyph>
<glyph name="_part.cy-desc-lc" format="2">
  <advance width="1198"/>
  <anchor x="942" y="0" name="_descender"/>
  <outline>
    <contour>
      <point x="1074" y="-300" type="line"/>
      <point x="1178" y="-300" type="line"/>
      <point x="1178" y="104" type="line"/>
      <point x="862" y="104" type="line"/>
      <point x="862" y="0" type="line"/>
      <point x="1074" y="0" type="line"/>
    </contour>
  </outline>
</glyph>
<glyph name="_part.cy-desc-uc-reversed-stem" format="2">
  <anchor x="-232" y="0" name="_descender"/>
  <outline>
    <contour>
      <point x="-340" y="-360" type="line"/>
      <point x="-232" y="-360" type="line"/>
      <point x="-232" y="0" type="line"/>
      <point x="-212" y="20" type="line"/>
      <point x="-212" y="108" type="line"/>
      <point x="-340" y="108" type="line"/>
    </contour>
  </outline>
</glyph>
<glyph name="_part.cy-desc-uc-stem" format="2">
  <anchor x="-180" y="0" name="_descender"/>
  <outline>
    <contour>
      <point x="-180" y="-360" type="line"/>
      <point x="-72" y="-360" type="line"/>
      <point x="-72" y="108" type="line"/>
      <point x="-220" y="108" type="line"/>
      <point x="-220" y="0" type="line"/>
      <point x="-180" y="0" type="line"/>
    </contour>
  </outline>
</glyph>
<glyph name="_part.franc" format="2">
  <advance width="1130"/>
  <outline>
    <contour>
      <point x="200" y="0" type="line"/>
      <point x="312" y="0" type="line"/>
      <point x="312" y="670" type="line"/>
      <point x="946" y="670" type="line"/>
      <point x="946" y="774" type="line"/>
      <point x="312" y="774" type="line"/>
      <point x="312" y="1296" type="line"/>
      <point x="1006" y="1296" type="line"/>
      <point x="1006" y="1400" type="line"/>
      <point x="200" y="1400" type="line"/>
    </contour>
  </outline>
</glyph>
<glyph name="_part.kaverticalstroke-cy" format="2">
  <advance width="1046"/>
  <guideline x="283" y="256" angle="180"/>
  <anchor x="434" y="512" name="center"/>
  <outline>
    <contour>
      <point x="846" y="0" type="line"/>
      <point x="986" y="0" type="line"/>
      <point x="632" y="522" type="line"/>
      <point x="914" y="960" type="line"/>
      <point x="794" y="960" type="line"/>
      <point x="508" y="518" type="line"/>
    </contour>
    <contour>
      <point x="170" y="0" type="line"/>
      <point x="282" y="0" type="line"/>
      <point x="280" y="460" type="line"/>
      <point x="566" y="460" type="line"/>
      <point x="566" y="564" type="line"/>
      <point x="280" y="564" type="line"/>
      <point x="282" y="960" type="line"/>
      <point x="170" y="960" type="line"/>
    </contour>
  </outline>
</glyph>
<glyph name="_part.kip" format="2">
  <advance width="1296"/>
  <outline>
    <contour>
      <point x="1092" y="0" type="line"/>
      <point x="1230" y="0" type="line"/>
      <point x="690" y="682" type="line"/>
      <point x="1180" y="1400" type="line"/>
      <point x="1058" y="1400" type="line"/>
      <point x="560" y="680" type="line"/>
    </contour>
    <contour>
      <point x="316" y="0" type="line"/>
      <point x="428" y="0" type="line"/>
      <point x="428" y="1400" type="line"/>
      <point x="316" y="1400" type="line"/>
    </contour>
  </outline>
</glyph>
<glyph name="_part.ogonek" format="2">
  <advance width="2"/>
  <anchor x="-496" y="0" name="_ogonek"/>
  <outline>
    <contour>
      <point x="-656" y="-450" type="curve" smooth="yes"/>
      <point x="-600" y="-450"/>
      <point x="-543" y="-435"/>
      <point x="-494" y="-409" type="curve"/>
      <point x="-536" y="-313" type="line"/>
      <point x="-565" y="-329"/>
      <point x="-601" y="-340"/>
      <point x="-640" y="-340" type="curve" smooth="yes"/>
      <point x="-714" y="-340"/>
      <point x="-738" y="-291"/>
      <point x="-736" y="-229" type="curve" smooth="yes"/>
      <point x="-732" y="-105"/>
      <point x="-636" y="-38"/>
      <point x="-496" y="0" type="curve"/>
      <point x="-562" y="111" type="line"/>
      <point x="-501" y="76" type="line"/>
      <point x="-683" y="40"/>
      <point x="-852" y="-74"/>
      <point x="-856" y="-255" type="curve" smooth="yes"/>
      <point x="-858" y="-362"/>
      <point x="-788" y="-450"/>
    </contour>
  </outline>
</glyph>
<glyph name="acutecomb.narrow" format="2">
  <anchor x="-586" y="960" name="_top"/>
  <outline>
    <contour>
      <point x="-648" y="1170" type="line"/>
      <point x="-542" y="1170" type="line"/>
      <point x="-368" y="1504" type="line"/>
      <point x="-488" y="1504" type="line"/>
    </contour>
  </outline>
</glyph>
<glyph name="brevecomb.narrow" format="2">
  <anchor x="-584" y="960" name="_top"/>
  <anchor x="-584" y="1404" name="top"/>
  <outline>
    <contour>
      <point x="-584" y="1160" type="curve" smooth="yes"/>
      <point x="-418" y="1160"/>
      <point x="-298" y="1308"/>
      <point x="-302" y="1504" type="curve"/>
      <point x="-404" y="1504" type="line"/>
      <point x="-396" y="1356"/>
      <point x="-472" y="1256"/>
      <point x="-584" y="1256" type="curve" smooth="yes"/>
      <point x="-698" y="1256"/>
      <point x="-774" y="1356"/>
      <point x="-768" y="1504" type="curve"/>
      <point x="-868" y="1504" type="line"/>
      <point x="-874" y="1306"/>
      <point x="-754" y="1160"/>
    </contour>
  </outline>
</glyph>
<glyph name="breveinvertedcomb.case" format="2">
  <anchor x="-788" y="1398" name="_top"/>
  <outline>
    <contour>
      <point x="-1126" y="1592" type="curve"/>
      <point x="-1024" y="1592" type="line"/>
      <point x="-1030" y="1728"/>
      <point x="-934" y="1820"/>
      <point x="-788" y="1820" type="curve" smooth="yes"/>
      <point x="-644" y="1820"/>
      <point x="-550" y="1728"/>
      <point x="-558" y="1592" type="curve"/>
      <point x="-454" y="1592" type="line"/>
      <point x="-448" y="1776"/>
      <point x="-592" y="1914"/>
      <point x="-788" y="1914" type="curve" smooth="yes"/>
      <point x="-984" y="1914"/>
      <point x="-1134" y="1784"/>
    </contour>
  </outline>
</glyph>
<glyph name="caroncomb.alt" format="2">
  <anchor x="-191" y="1440" name="_caron"/>
  <outline>
    <contour>
      <point x="-121" y="1012" type="line"/>
      <point x="-43" y="1012" type="line"/>
      <point x="-1" y="1440" type="line"/>
      <point x="-121" y="1440" type="line"/>
    </contour>
  </outline>
</glyph>
<glyph name="circumflexcomb.case" format="2">
  <anchor x="-788" y="1398" name="_top"/>
  <anchor x="-788" y="1848" name="top"/>
  <anchor x="-470" y="1646" name="top_right"/>
  <outline>
    <contour>
      <point x="-1112" y="1592" type="line"/>
      <point x="-988" y="1592" type="line"/>
      <point x="-782" y="1828" type="line"/>
      <point x="-584" y="1592" type="line"/>
      <point x="-464" y="1592" type="line"/>
      <point x="-716" y="1904" type="line"/>
      <point x="-842" y="1904" type="line"/>
    </contour>
  </outline>
</glyph>
<glyph name="circumflexcomb.narrow" format="2">
  <anchor x="-586" y="960" name="_top"/>
  <anchor x="-586" y="1444" name="top"/>
  <anchor x="-314" y="1224" name="top_right"/>
  <outline>
    <contour>
      <point x="-862" y="1170" type="line"/>
      <point x="-744" y="1170" type="line"/>
      <point x="-582" y="1426" type="line"/>
      <point x="-426" y="1170" type="line"/>
      <point x="-308" y="1170" type="line"/>
      <point x="-520" y="1504" type="line"/>
      <point x="-638" y="1504" type="line"/>
    </contour>
  </outline>
</glyph>
<glyph name="dblgravecomb.narrow" format="2">
  <anchor x="-586" y="960" name="_top"/>
  <outline>
    <contour>
      <point x="-670" y="1170" type="line"/>
      <point x="-808" y="1504" type="line"/>
      <point x="-924" y="1504" type="line"/>
      <point x="-774" y="1170" type="line"/>
    </contour>
    <contour>
      <point x="-394" y="1170" type="line"/>
      <point x="-532" y="1504" type="line"/>
      <point x="-650" y="1504" type="line"/>
      <point x="-500" y="1170" type="line"/>
    </contour>
  </outline>
</glyph>
<glyph name="dieresiscomb.case" format="2">
  <anchor x="-790" y="1398" name="_top"/>
  <anchor x="-790" y="1704" name="top"/>
  <outline>
    <contour>
      <point x="-976" y="1584" type="curve" smooth="yes"/>
      <point x="-922" y="1584"/>
      <point x="-880" y="1626"/>
      <point x="-880" y="1676" type="curve" smooth="yes"/>
      <point x="-880" y="1726"/>
      <point x="-924" y="1766"/>
      <point x="-976" y="1766" type="curve" smooth="yes"/>
      <point x="-1028" y="1766"/>
      <point x="-1072" y="1726"/>
      <point x="-1072" y="1676" type="curve" smooth="yes"/>
      <point x="-1072" y="1626"/>
      <point x="-1030" y="1584"/>
    </contour>
    <contour>
      <point x="-602" y="1584" type="curve" smooth="yes"/>
      <point x="-550" y="1584"/>
      <point x="-506" y="1626"/>
      <point x="-506" y="1676" type="curve" smooth="yes"/>
      <point x="-506" y="1726"/>
      <point x="-550" y="1766"/>
      <point x="-602" y="1766" type="curve" smooth="yes"/>
      <point x="-656" y="1766"/>
      <point x="-698" y="1724"/>
      <point x="-698" y="1676" type="curve" smooth="yes"/>
      <point x="-698" y="1626"/>
      <point x="-656" y="1584"/>
    </contour>
  </outline>
</glyph>
<glyph name="dieresiscomb.narrow" format="2">
  <anchor x="-586" y="960" name="_top"/>
  <anchor x="-586" y="1284" name="top"/>
  <outline>
    <contour>
      <point x="-718" y="1162" type="curve" smooth="yes"/>
      <point x="-666" y="1162"/>
      <point x="-624" y="1204"/>
      <point x="-624" y="1256" type="curve" smooth="yes"/>
      <point x="-624" y="1308"/>
      <point x="-666" y="1350"/>
      <point x="-718" y="1350" type="curve" smooth="yes"/>
      <point x="-770" y="1350"/>
      <point x="-812" y="1308"/>
      <point x="-812" y="1256" type="curve" smooth="yes"/>
      <point x="-812" y="1204"/>
      <point x="-770" y="1162"/>
    </contour>
    <contour>
      <point x="-454" y="1162" type="curve" smooth="yes"/>
      <point x="-402" y="1162"/>
      <point x="-360" y="1204"/>
      <point x="-360" y="1256" type="curve" smooth="yes"/>
      <point x="-360" y="1308"/>
      <point x="-402" y="1350"/>
      <point x="-454" y="1350" type="curve" smooth="yes"/>
      <point x="-506" y="1350"/>
      <point x="-548" y="1308"/>
      <point x="-548" y="1256" type="curve" smooth="yes"/>
      <point x="-548" y="1204"/>
      <point x="-506" y="1162"/>
    </contour>
  </outline>
</glyph>
<glyph name="gravecomb.narrow" format="2">
  <anchor x="-586" y="960" name="_top"/>
  <outline>
    <contour>
      <point x="-620" y="1170" type="line"/>
      <point x="-510" y="1170" type="line"/>
      <point x="-668" y="1504" type="line"/>
      <point x="-792" y="1504" type="line"/>
    </contour>
  </outline>
</glyph>
<glyph name="hardsign-cy.loclBGR" format="2">
  <advance width="1263"/>
  <outline>
    <contour>
      <point x="777" y="-20" type="curve" smooth="yes"/>
      <point x="1031" y="-20"/>
      <point x="1197" y="142"/>
      <point x="1197" y="342" type="curve" smooth="yes"/>
      <point x="1197" y="540"/>
      <point x="1027" y="704"/>
      <point x="791" y="704" type="curve" smooth="yes"/>
      <point x="653" y="704"/>
      <point x="515" y="642"/>
      <point x="463" y="550" type="curve"/>
      <point x="477" y="526" type="line"/>
      <point x="477" y="960" type="line"/>
      <point x="365" y="960" type="line"/>
      <point x="365" y="344" type="line" smooth="yes"/>
      <point x="365" y="120"/>
      <point x="539" y="-20"/>
    </contour>
    <contour>
      <point x="777" y="82" type="curve" smooth="yes"/>
      <point x="605" y="82"/>
      <point x="479" y="182"/>
      <point x="479" y="342" type="curve" smooth="yes"/>
      <point x="479" y="500"/>
      <point x="605" y="600"/>
      <point x="777" y="600" type="curve" smooth="yes"/>
      <point x="951" y="600"/>
      <point x="1079" y="500"/>
      <point x="1079" y="342" type="curve" smooth="yes"/>
      <point x="1079" y="184"/>
      <point x="951" y="82"/>
    </contour>
    <contour>
      <point x="365" y="856" type="line"/>
      <point x="477" y="960" type="line"/>
      <point x="47" y="960" type="line"/>
      <point x="47" y="856" type="line"/>
    </contour>
  </outline>
</glyph>
<glyph name="horncomb.alt" format="2">
  <anchor x="-210" y="960" name="_horn"/>
  <outline>
    <contour>
      <point x="-190" y="802" type="curve" smooth="yes"/>
      <point x="-62" y="802"/>
      <point x="2" y="886"/>
      <point x="2" y="984" type="curve" smooth="yes"/>
      <point x="2" y="1042"/>
      <point x="-22" y="1110"/>
      <point x="-74" y="1172" type="curve"/>
      <point x="-166" y="1130" type="line"/>
      <point x="-124" y="1074"/>
      <point x="-104" y="1022"/>
      <point x="-104" y="982" type="curve" smooth="yes"/>
      <point x="-104" y="926"/>
      <point x="-134" y="886"/>
      <point x="-210" y="886" type="curve" smooth="yes"/>
      <point x="-222" y="886"/>
      <point x="-238" y="888"/>
      <point x="-258" y="892" type="curve"/>
      <point x="-258" y="812" type="line"/>
      <point x="-232" y="806"/>
      <point x="-210" y="802"/>
    </contour>
  </outline>
</glyph>
<glyph name="macroncomb.wide" format="2">
  <anchor x="-588" y="960" name="_top"/>
  <outline>
    <contour>
      <point x="-1000" y="1230" type="line"/>
      <point x="-174" y="1230" type="line"/>
      <point x="-174" y="1334" type="line"/>
      <point x="-1000" y="1334" type="line"/>
    </contour>
  </outline>
</glyph>
<glyph name="nine.ss02" format="2">
  <advance width="1228"/>
  <outline>
    <contour>
      <point x="338" y="0" type="line"/>
      <point x="480" y="0" type="line"/>
      <point x="912" y="558" type="line" smooth="yes"/>
      <point x="1054" y="740"/>
      <point x="1108" y="848"/>
      <point x="1108" y="988" type="curve" smooth="yes"/>
      <point x="1108" y="1224"/>
      <point x="890" y="1430"/>
      <point x="614" y="1430" type="curve" smooth="yes"/>
      <point x="328" y="1430"/>
      <point x="120" y="1232"/>
      <point x="120" y="972" type="curve" smooth="yes"/>
      <point x="120" y="726"/>
      <point x="334" y="538"/>
      <point x="610" y="538" type="curve" smooth="yes"/>
      <point x="694" y="538"/>
      <point x="784" y="560"/>
      <point x="866" y="614" type="curve"/>
      <point x="832" y="620" type="line"/>
    </contour>
    <contour>
      <point x="614" y="640" type="curve" smooth="yes"/>
      <point x="404" y="640"/>
      <point x="244" y="786"/>
      <point x="244" y="978" type="curve" smooth="yes"/>
      <point x="244" y="1176"/>
      <point x="396" y="1318"/>
      <point x="608" y="1318" type="curve" smooth="yes"/>
      <point x="824" y="1318"/>
      <point x="984" y="1172"/>
      <point x="984" y="978" type="curve" smooth="yes"/>
      <point x="984" y="784"/>
      <point x="826" y="640"/>
    </contour>
  </outline>
</glyph>
<glyph name="sha-cy.loclBGR" format="2">
  <advance width="1800"/>
  <anchor x="1630" y="0" name="descender"/>
  <anchor x="896" y="960" name="top"/>
  <outline>
    <contour>
      <point x="520" y="-30" type="curve" smooth="yes"/>
      <point x="630" y="-30"/>
      <point x="760" y="4"/>
      <point x="872" y="162" type="curve"/>
      <point x="920" y="56"/>
      <point x="1024" y="-30"/>
      <point x="1198" y="-30" type="curve" smooth="yes"/>
      <point x="1316" y="-30"/>
      <point x="1432" y="18"/>
      <point x="1518" y="146" type="curve"/>
      <point x="1518" y="0" type="line"/>
      <point x="1630" y="0" type="line"/>
      <point x="1630" y="960" type="line"/>
      <point x="1518" y="960" type="line"/>
      <point x="1518" y="390" type="line" smooth="yes"/>
      <point x="1518" y="204"/>
      <point x="1384" y="78"/>
      <point x="1218" y="78" type="curve" smooth="yes"/>
      <point x="1042" y="78"/>
      <point x="952" y="188"/>
      <point x="952" y="348" type="curve" smooth="yes"/>
      <point x="952" y="960" type="line"/>
      <point x="840" y="960" type="line"/>
      <point x="840" y="390" type="line" smooth="yes"/>
      <point x="840" y="204"/>
      <point x="706" y="78"/>
      <point x="540" y="78" type="curve" smooth="yes"/>
      <point x="364" y="78"/>
      <point x="274" y="188"/>
      <point x="274" y="348" type="curve" smooth="yes"/>
      <point x="274" y="960" type="line"/>
      <point x="162" y="960" type="line"/>
      <point x="162" y="314" type="line" smooth="yes"/>
      <point x="162" y="152"/>
      <point x="266" y="-30"/>
    </contour>
  </outline>
</glyph>
<glyph name="softsign-cy.loclBGR" format="2">
  <advance width="1055"/>
  <guideline x="-76" y="-82" angle="0"/>
  <outline>
    <contour>
      <point x="569" y="-20" type="curve" smooth="yes"/>
      <point x="823" y="-20"/>
      <point x="989" y="142"/>
      <point x="989" y="342" type="curve" smooth="yes"/>
      <point x="989" y="540"/>
      <point x="819" y="704"/>
      <point x="583" y="704" type="curve" smooth="yes"/>
      <point x="445" y="704"/>
      <point x="307" y="642"/>
      <point x="255" y="550" type="curve"/>
      <point x="269" y="526" type="line"/>
      <point x="269" y="960" type="line"/>
      <point x="157" y="960" type="line"/>
      <point x="157" y="344" type="line" smooth="yes"/>
      <point x="157" y="120"/>
      <point x="331" y="-20"/>
    </contour>
    <contour>
      <point x="569" y="82" type="curve" smooth="yes"/>
      <point x="397" y="82"/>
      <point x="271" y="182"/>
      <point x="271" y="342" type="curve" smooth="yes"/>
      <point x="271" y="500"/>
      <point x="397" y="600"/>
      <point x="569" y="600" type="curve" smooth="yes"/>
      <point x="743" y="600"/>
      <point x="871" y="500"/>
      <point x="871" y="342" type="curve" smooth="yes"/>
      <point x="871" y="184"/>
      <point x="743" y="82"/>
    </contour>
  </outline>
</glyph>
<glyph name="strokeshortcomb.case" format="2">
  <anchor x="-838" y="742" name="_bar"/>
  <outline>
    <contour>
      <point x="-1250" y="698" type="line"/>
      <point x="-426" y="698" type="line"/>
      <point x="-426" y="786" type="line"/>
      <point x="-1250" y="786" type="line"/>
    </contour>
  </outline>
</glyph>
<glyph name="tonos.case" format="2">
  <advance width="428"/>
  <anchor x="406" y="1400" name="_topleft"/>
  <outline>
    <contour>
      <point x="138" y="1158" type="line"/>
      <point x="246" y="1158" type="line"/>
      <point x="366" y="1470" type="line"/>
      <point x="246" y="1470" type="line"/>
    </contour>
  </outline>
</glyph>
<glyph name="two.numr" format="2">
  <advance width="824"/>
  <outline>
    <contour>
      <point x="108" y="490" type="line"/>
      <point x="722" y="490" type="line"/>
      <point x="722" y="582" type="line"/>
      <point x="244" y="582" type="line"/>
      <point x="420" y="738" type="line" smooth="yes"/>
      <point x="644" y="936"/>
      <point x="700" y="1040"/>
      <point x="700" y="1154" type="curve" smooth="yes"/>
      <point x="700" y="1316"/>
      <point x="572" y="1420"/>
      <point x="388" y="1420" type="curve" smooth="yes"/>
      <point x="282" y="1420"/>
      <point x="188" y="1388"/>
      <point x="118" y="1327" type="curve"/>
      <point x="160" y="1250" type="line"/>
      <point x="210" y="1300"/>
      <point x="292" y="1326"/>
      <point x="374" y="1326" type="curve" smooth="yes"/>
      <point x="514" y="1326"/>
      <point x="600" y="1258"/>
      <point x="600" y="1148" type="curve" smooth="yes"/>
      <point x="600" y="1034"/>
      <point x="512" y="934"/>
      <point x="314" y="756" type="curve" smooth="yes"/>
      <point x="108" y="572" type="line"/>
    </contour>
  </outline>
</glyph>
<glyph name="ze-cy.loclBGR" format="2">
  <advance width="1001"/>
  <anchor x="478" y="-420" name="bottom"/>
  <anchor x="466" y="960" name="top"/>
  <outline>
    <contour>
      <point x="450" y="-450" type="curve" smooth="yes"/>
      <point x="706" y="-450"/>
      <point x="906" y="-288"/>
      <point x="908" y="-56" type="curve" smooth="yes"/>
      <point x="910" y="136"/>
      <point x="792" y="264"/>
      <point x="638" y="306" type="curve"/>
      <point x="764" y="348"/>
      <point x="870" y="490"/>
      <point x="870" y="640" type="curve" smooth="yes"/>
      <point x="870" y="846"/>
      <point x="712" y="988"/>
      <point x="462" y="988" type="curve" smooth="yes"/>
      <point x="308" y="988"/>
      <point x="170" y="930"/>
      <point x="72" y="834" type="curve"/>
      <point x="130" y="748" type="line"/>
      <point x="216" y="830"/>
      <point x="330" y="880"/>
      <point x="456" y="880" type="curve" smooth="yes"/>
      <point x="640" y="880"/>
      <point x="750" y="784"/>
      <point x="750" y="622" type="curve" smooth="yes"/>
      <point x="750" y="458"/>
      <point x="604" y="346"/>
      <point x="422" y="346" type="curve" smooth="yes"/>
      <point x="234" y="346" type="line"/>
      <point x="234" y="242" type="line"/>
      <point x="430" y="242" type="line" smooth="yes"/>
      <point x="630" y="242"/>
      <point x="788" y="152"/>
      <point x="788" y="-56" type="curve" smooth="yes"/>
      <point x="788" y="-236"/>
      <point x="654" y="-342"/>
      <point x="450" y="-342" type="curve" smooth="yes"/>
      <point x="306" y="-342"/>
      <point x="176" y="-290"/>
      <point x="90" y="-200" type="curve"/>
      <point x="26" y="-296" type="line"/>
      <point x="132" y="-394"/>
      <point x="288" y="-450"/>
    </contour>
  </outline>
</glyph>
